<mxfile host="Electron" modified="2024-05-18T09:37:48.105Z" agent="Mozilla/5.0 (Windows NT 10.0; Win64; x64) AppleWebKit/537.36 (KHTML, like Gecko) draw.io/21.7.5 Chrome/114.0.5735.289 Electron/25.8.1 Safari/537.36" etag="bbDv-T7FHnG7hIGcXnGa" version="21.7.5" type="device">
  <diagram id="R2lEEEUBdFMjLlhIrx00" name="Page-1">
    <mxGraphModel dx="2876" dy="1240" grid="1" gridSize="10" guides="1" tooltips="1" connect="1" arrows="1" fold="1" page="1" pageScale="1" pageWidth="850" pageHeight="1100" math="0" shadow="0" extFonts="Permanent Marker^https://fonts.googleapis.com/css?family=Permanent+Marker">
      <root>
        <mxCell id="0" />
        <mxCell id="1" parent="0" />
        <mxCell id="MTy-CeRvN0DArt2pfCo6-20" value="" style="group" parent="1" vertex="1" connectable="0">
          <mxGeometry x="-16" y="420" width="320" height="300" as="geometry" />
        </mxCell>
        <mxCell id="ggz4SEzuD-9y7MbeMjTg-1" value="User" style="shape=table;startSize=30;container=1;collapsible=1;childLayout=tableLayout;fixedRows=1;rowLines=0;fontStyle=1;align=center;resizeLast=1;html=1;" parent="MTy-CeRvN0DArt2pfCo6-20" vertex="1">
          <mxGeometry width="320" height="300" as="geometry">
            <mxRectangle width="70" height="30" as="alternateBounds" />
          </mxGeometry>
        </mxCell>
        <mxCell id="ggz4SEzuD-9y7MbeMjTg-5" value="" style="shape=tableRow;horizontal=0;startSize=0;swimlaneHead=0;swimlaneBody=0;fillColor=none;collapsible=0;dropTarget=0;points=[[0,0.5],[1,0.5]];portConstraint=eastwest;top=0;left=0;right=0;bottom=0;" parent="ggz4SEzuD-9y7MbeMjTg-1" vertex="1">
          <mxGeometry y="30" width="320" height="30" as="geometry" />
        </mxCell>
        <mxCell id="ggz4SEzuD-9y7MbeMjTg-6" value="" style="shape=partialRectangle;connectable=0;fillColor=none;top=0;left=0;bottom=0;right=0;editable=1;overflow=hidden;whiteSpace=wrap;html=1;" parent="ggz4SEzuD-9y7MbeMjTg-5" vertex="1">
          <mxGeometry width="30" height="30" as="geometry">
            <mxRectangle width="30" height="30" as="alternateBounds" />
          </mxGeometry>
        </mxCell>
        <mxCell id="ggz4SEzuD-9y7MbeMjTg-7" value="&lt;b&gt;UserID&lt;/b&gt;" style="shape=partialRectangle;connectable=0;fillColor=none;top=0;left=0;bottom=0;right=0;align=left;spacingLeft=6;overflow=hidden;whiteSpace=wrap;html=1;" parent="ggz4SEzuD-9y7MbeMjTg-5" vertex="1">
          <mxGeometry x="30" width="290" height="30" as="geometry">
            <mxRectangle width="290" height="30" as="alternateBounds" />
          </mxGeometry>
        </mxCell>
        <mxCell id="ggz4SEzuD-9y7MbeMjTg-8" value="" style="shape=tableRow;horizontal=0;startSize=0;swimlaneHead=0;swimlaneBody=0;fillColor=none;collapsible=0;dropTarget=0;points=[[0,0.5],[1,0.5]];portConstraint=eastwest;top=0;left=0;right=0;bottom=0;" parent="ggz4SEzuD-9y7MbeMjTg-1" vertex="1">
          <mxGeometry y="60" width="320" height="30" as="geometry" />
        </mxCell>
        <mxCell id="ggz4SEzuD-9y7MbeMjTg-9" value="" style="shape=partialRectangle;connectable=0;fillColor=none;top=0;left=0;bottom=0;right=0;editable=1;overflow=hidden;whiteSpace=wrap;html=1;" parent="ggz4SEzuD-9y7MbeMjTg-8" vertex="1">
          <mxGeometry width="320" height="30" as="geometry">
            <mxRectangle width="320" height="30" as="alternateBounds" />
          </mxGeometry>
        </mxCell>
        <mxCell id="ggz4SEzuD-9y7MbeMjTg-11" value="" style="shape=tableRow;horizontal=0;startSize=0;swimlaneHead=0;swimlaneBody=0;fillColor=none;collapsible=0;dropTarget=0;points=[[0,0.5],[1,0.5]];portConstraint=eastwest;top=0;left=0;right=0;bottom=0;" parent="ggz4SEzuD-9y7MbeMjTg-1" vertex="1">
          <mxGeometry y="90" width="320" height="30" as="geometry" />
        </mxCell>
        <mxCell id="ggz4SEzuD-9y7MbeMjTg-12" value="" style="shape=partialRectangle;connectable=0;fillColor=none;top=0;left=0;bottom=0;right=0;editable=1;overflow=hidden;whiteSpace=wrap;html=1;" parent="ggz4SEzuD-9y7MbeMjTg-11" vertex="1">
          <mxGeometry width="30" height="30" as="geometry">
            <mxRectangle width="30" height="30" as="alternateBounds" />
          </mxGeometry>
        </mxCell>
        <mxCell id="ggz4SEzuD-9y7MbeMjTg-13" value="" style="shape=partialRectangle;connectable=0;fillColor=none;top=0;left=0;bottom=0;right=0;align=left;spacingLeft=6;overflow=hidden;whiteSpace=wrap;html=1;" parent="ggz4SEzuD-9y7MbeMjTg-11" vertex="1">
          <mxGeometry x="30" width="290" height="30" as="geometry">
            <mxRectangle width="290" height="30" as="alternateBounds" />
          </mxGeometry>
        </mxCell>
        <mxCell id="ggz4SEzuD-9y7MbeMjTg-14" value="PK" style="shape=partialRectangle;connectable=0;fillColor=none;top=0;left=0;bottom=0;right=0;fontStyle=1;overflow=hidden;whiteSpace=wrap;html=1;" parent="MTy-CeRvN0DArt2pfCo6-20" vertex="1">
          <mxGeometry y="30" width="30" height="30" as="geometry">
            <mxRectangle width="30" height="30" as="alternateBounds" />
          </mxGeometry>
        </mxCell>
        <mxCell id="ggz4SEzuD-9y7MbeMjTg-16" value="" style="line;strokeWidth=1;rotatable=0;dashed=0;labelPosition=right;align=left;verticalAlign=middle;spacingTop=0;spacingLeft=6;points=[];portConstraint=eastwest;" parent="MTy-CeRvN0DArt2pfCo6-20" vertex="1">
          <mxGeometry y="85" width="320" height="10" as="geometry" />
        </mxCell>
        <mxCell id="ggz4SEzuD-9y7MbeMjTg-17" value="" style="line;strokeWidth=1;rotatable=0;dashed=0;labelPosition=right;align=left;verticalAlign=middle;spacingTop=0;spacingLeft=6;points=[];portConstraint=eastwest;" parent="MTy-CeRvN0DArt2pfCo6-20" vertex="1">
          <mxGeometry y="55" width="320" height="10" as="geometry" />
        </mxCell>
        <mxCell id="ggz4SEzuD-9y7MbeMjTg-18" value="" style="shape=partialRectangle;connectable=0;fillColor=none;top=0;left=0;bottom=0;right=0;fontStyle=1;overflow=hidden;whiteSpace=wrap;html=1;" parent="MTy-CeRvN0DArt2pfCo6-20" vertex="1">
          <mxGeometry y="60" width="30" height="30" as="geometry">
            <mxRectangle width="30" height="30" as="alternateBounds" />
          </mxGeometry>
        </mxCell>
        <mxCell id="ggz4SEzuD-9y7MbeMjTg-19" value="&lt;b&gt;varchar(64)&lt;/b&gt;" style="text;html=1;align=center;verticalAlign=middle;resizable=0;points=[];autosize=1;strokeColor=none;fillColor=none;" parent="MTy-CeRvN0DArt2pfCo6-20" vertex="1">
          <mxGeometry x="160" y="90" width="90" height="30" as="geometry" />
        </mxCell>
        <mxCell id="ggz4SEzuD-9y7MbeMjTg-20" value="&lt;b&gt;varchar(64)&lt;/b&gt;" style="text;html=1;align=center;verticalAlign=middle;resizable=0;points=[];autosize=1;strokeColor=none;fillColor=none;" parent="MTy-CeRvN0DArt2pfCo6-20" vertex="1">
          <mxGeometry x="160" y="60" width="90" height="30" as="geometry" />
        </mxCell>
        <mxCell id="ggz4SEzuD-9y7MbeMjTg-21" value="NOT NULL" style="shape=partialRectangle;connectable=0;fillColor=none;top=0;left=0;bottom=0;right=0;fontStyle=1;overflow=hidden;whiteSpace=wrap;html=1;" parent="MTy-CeRvN0DArt2pfCo6-20" vertex="1">
          <mxGeometry x="250" y="60" width="70" height="30" as="geometry">
            <mxRectangle width="30" height="30" as="alternateBounds" />
          </mxGeometry>
        </mxCell>
        <mxCell id="ggz4SEzuD-9y7MbeMjTg-22" value="NOT NULL" style="shape=partialRectangle;connectable=0;fillColor=none;top=0;left=0;bottom=0;right=0;fontStyle=1;overflow=hidden;whiteSpace=wrap;html=1;" parent="MTy-CeRvN0DArt2pfCo6-20" vertex="1">
          <mxGeometry x="250" y="90" width="70" height="30" as="geometry">
            <mxRectangle width="30" height="30" as="alternateBounds" />
          </mxGeometry>
        </mxCell>
        <mxCell id="ggz4SEzuD-9y7MbeMjTg-23" value="NOT NULL" style="shape=partialRectangle;connectable=0;fillColor=none;top=0;left=0;bottom=0;right=0;fontStyle=1;overflow=hidden;whiteSpace=wrap;html=1;" parent="MTy-CeRvN0DArt2pfCo6-20" vertex="1">
          <mxGeometry x="250" y="120" width="70" height="30" as="geometry">
            <mxRectangle width="30" height="30" as="alternateBounds" />
          </mxGeometry>
        </mxCell>
        <mxCell id="ggz4SEzuD-9y7MbeMjTg-24" value="" style="line;strokeWidth=1;rotatable=0;dashed=0;labelPosition=right;align=left;verticalAlign=middle;spacingTop=0;spacingLeft=6;points=[];portConstraint=eastwest;" parent="MTy-CeRvN0DArt2pfCo6-20" vertex="1">
          <mxGeometry y="115" width="320" height="10" as="geometry" />
        </mxCell>
        <mxCell id="MTy-CeRvN0DArt2pfCo6-1" value="&lt;b&gt;varchar(64)&lt;/b&gt;" style="text;html=1;align=center;verticalAlign=middle;resizable=0;points=[];autosize=1;strokeColor=none;fillColor=none;" parent="MTy-CeRvN0DArt2pfCo6-20" vertex="1">
          <mxGeometry x="160" y="120" width="90" height="30" as="geometry" />
        </mxCell>
        <mxCell id="MTy-CeRvN0DArt2pfCo6-2" value="UCN" style="shape=partialRectangle;connectable=0;fillColor=none;top=0;left=0;bottom=0;right=0;align=left;spacingLeft=6;overflow=hidden;whiteSpace=wrap;html=1;" parent="MTy-CeRvN0DArt2pfCo6-20" vertex="1">
          <mxGeometry x="30" y="150" width="290" height="30" as="geometry">
            <mxRectangle width="290" height="30" as="alternateBounds" />
          </mxGeometry>
        </mxCell>
        <mxCell id="MTy-CeRvN0DArt2pfCo6-3" value="NOT NULL" style="shape=partialRectangle;connectable=0;fillColor=none;top=0;left=0;bottom=0;right=0;fontStyle=1;overflow=hidden;whiteSpace=wrap;html=1;" parent="MTy-CeRvN0DArt2pfCo6-20" vertex="1">
          <mxGeometry x="250" y="150" width="70" height="30" as="geometry">
            <mxRectangle width="30" height="30" as="alternateBounds" />
          </mxGeometry>
        </mxCell>
        <mxCell id="MTy-CeRvN0DArt2pfCo6-4" value="" style="line;strokeWidth=1;rotatable=0;dashed=0;labelPosition=right;align=left;verticalAlign=middle;spacingTop=0;spacingLeft=6;points=[];portConstraint=eastwest;" parent="MTy-CeRvN0DArt2pfCo6-20" vertex="1">
          <mxGeometry y="145" width="320" height="10" as="geometry" />
        </mxCell>
        <mxCell id="MTy-CeRvN0DArt2pfCo6-5" value="&lt;b&gt;varchar(10)&lt;/b&gt;" style="text;html=1;align=center;verticalAlign=middle;resizable=0;points=[];autosize=1;strokeColor=none;fillColor=none;" parent="MTy-CeRvN0DArt2pfCo6-20" vertex="1">
          <mxGeometry x="160" y="150" width="90" height="30" as="geometry" />
        </mxCell>
        <mxCell id="MTy-CeRvN0DArt2pfCo6-6" value="Names" style="shape=partialRectangle;connectable=0;fillColor=none;top=0;left=0;bottom=0;right=0;align=left;spacingLeft=6;overflow=hidden;whiteSpace=wrap;html=1;" parent="MTy-CeRvN0DArt2pfCo6-20" vertex="1">
          <mxGeometry x="30" y="180" width="290" height="30" as="geometry">
            <mxRectangle width="290" height="30" as="alternateBounds" />
          </mxGeometry>
        </mxCell>
        <mxCell id="MTy-CeRvN0DArt2pfCo6-7" value="NOT NULL" style="shape=partialRectangle;connectable=0;fillColor=none;top=0;left=0;bottom=0;right=0;fontStyle=1;overflow=hidden;whiteSpace=wrap;html=1;" parent="MTy-CeRvN0DArt2pfCo6-20" vertex="1">
          <mxGeometry x="250" y="180" width="70" height="30" as="geometry">
            <mxRectangle width="30" height="30" as="alternateBounds" />
          </mxGeometry>
        </mxCell>
        <mxCell id="MTy-CeRvN0DArt2pfCo6-8" value="" style="line;strokeWidth=1;rotatable=0;dashed=0;labelPosition=right;align=left;verticalAlign=middle;spacingTop=0;spacingLeft=6;points=[];portConstraint=eastwest;" parent="MTy-CeRvN0DArt2pfCo6-20" vertex="1">
          <mxGeometry y="175" width="320" height="10" as="geometry" />
        </mxCell>
        <mxCell id="MTy-CeRvN0DArt2pfCo6-9" value="&lt;b&gt;varchar(255)&lt;/b&gt;" style="text;html=1;align=center;verticalAlign=middle;resizable=0;points=[];autosize=1;strokeColor=none;fillColor=none;" parent="MTy-CeRvN0DArt2pfCo6-20" vertex="1">
          <mxGeometry x="160" y="180" width="90" height="30" as="geometry" />
        </mxCell>
        <mxCell id="MTy-CeRvN0DArt2pfCo6-10" value="Address" style="shape=partialRectangle;connectable=0;fillColor=none;top=0;left=0;bottom=0;right=0;align=left;spacingLeft=6;overflow=hidden;whiteSpace=wrap;html=1;" parent="MTy-CeRvN0DArt2pfCo6-20" vertex="1">
          <mxGeometry x="30" y="210" width="290" height="30" as="geometry">
            <mxRectangle width="290" height="30" as="alternateBounds" />
          </mxGeometry>
        </mxCell>
        <mxCell id="MTy-CeRvN0DArt2pfCo6-11" value="NOT NULL" style="shape=partialRectangle;connectable=0;fillColor=none;top=0;left=0;bottom=0;right=0;fontStyle=1;overflow=hidden;whiteSpace=wrap;html=1;" parent="MTy-CeRvN0DArt2pfCo6-20" vertex="1">
          <mxGeometry x="250" y="210" width="70" height="30" as="geometry">
            <mxRectangle width="30" height="30" as="alternateBounds" />
          </mxGeometry>
        </mxCell>
        <mxCell id="MTy-CeRvN0DArt2pfCo6-12" value="" style="line;strokeWidth=1;rotatable=0;dashed=0;labelPosition=right;align=left;verticalAlign=middle;spacingTop=0;spacingLeft=6;points=[];portConstraint=eastwest;" parent="MTy-CeRvN0DArt2pfCo6-20" vertex="1">
          <mxGeometry y="205" width="320" height="10" as="geometry" />
        </mxCell>
        <mxCell id="MTy-CeRvN0DArt2pfCo6-13" value="&lt;b&gt;varchar(255)&lt;/b&gt;" style="text;html=1;align=center;verticalAlign=middle;resizable=0;points=[];autosize=1;strokeColor=none;fillColor=none;" parent="MTy-CeRvN0DArt2pfCo6-20" vertex="1">
          <mxGeometry x="160" y="210" width="90" height="30" as="geometry" />
        </mxCell>
        <mxCell id="MTy-CeRvN0DArt2pfCo6-14" value="PhoneNumber" style="shape=partialRectangle;connectable=0;fillColor=none;top=0;left=0;bottom=0;right=0;align=left;spacingLeft=6;overflow=hidden;whiteSpace=wrap;html=1;" parent="MTy-CeRvN0DArt2pfCo6-20" vertex="1">
          <mxGeometry x="30" y="240" width="290" height="30" as="geometry">
            <mxRectangle width="290" height="30" as="alternateBounds" />
          </mxGeometry>
        </mxCell>
        <mxCell id="MTy-CeRvN0DArt2pfCo6-15" value="NOT NULL" style="shape=partialRectangle;connectable=0;fillColor=none;top=0;left=0;bottom=0;right=0;fontStyle=1;overflow=hidden;whiteSpace=wrap;html=1;" parent="MTy-CeRvN0DArt2pfCo6-20" vertex="1">
          <mxGeometry x="250" y="240" width="70" height="30" as="geometry">
            <mxRectangle width="30" height="30" as="alternateBounds" />
          </mxGeometry>
        </mxCell>
        <mxCell id="MTy-CeRvN0DArt2pfCo6-17" value="&lt;b&gt;varchar(10)&lt;/b&gt;" style="text;html=1;align=center;verticalAlign=middle;resizable=0;points=[];autosize=1;strokeColor=none;fillColor=none;" parent="MTy-CeRvN0DArt2pfCo6-20" vertex="1">
          <mxGeometry x="160" y="240" width="90" height="30" as="geometry" />
        </mxCell>
        <mxCell id="MTy-CeRvN0DArt2pfCo6-18" value="" style="shape=partialRectangle;connectable=0;fillColor=none;top=0;left=0;bottom=0;right=0;editable=1;overflow=hidden;whiteSpace=wrap;html=1;" parent="MTy-CeRvN0DArt2pfCo6-20" vertex="1">
          <mxGeometry y="120" width="30" height="30" as="geometry">
            <mxRectangle width="30" height="30" as="alternateBounds" />
          </mxGeometry>
        </mxCell>
        <mxCell id="MTy-CeRvN0DArt2pfCo6-19" value="" style="endArrow=none;html=1;rounded=0;" parent="MTy-CeRvN0DArt2pfCo6-20" edge="1">
          <mxGeometry width="50" height="50" relative="1" as="geometry">
            <mxPoint x="30" y="120" as="sourcePoint" />
            <mxPoint x="30" y="300" as="targetPoint" />
          </mxGeometry>
        </mxCell>
        <mxCell id="MTy-CeRvN0DArt2pfCo6-232" value="" style="line;strokeWidth=1;rotatable=0;dashed=0;labelPosition=right;align=left;verticalAlign=middle;spacingTop=0;spacingLeft=6;points=[];portConstraint=eastwest;" parent="MTy-CeRvN0DArt2pfCo6-20" vertex="1">
          <mxGeometry y="235" width="320" height="10" as="geometry" />
        </mxCell>
        <mxCell id="MTy-CeRvN0DArt2pfCo6-233" value="Password" style="shape=partialRectangle;connectable=0;fillColor=none;top=0;left=0;bottom=0;right=0;align=left;spacingLeft=6;overflow=hidden;whiteSpace=wrap;html=1;" parent="MTy-CeRvN0DArt2pfCo6-20" vertex="1">
          <mxGeometry x="30" y="120" width="290" height="30" as="geometry">
            <mxRectangle width="290" height="30" as="alternateBounds" />
          </mxGeometry>
        </mxCell>
        <mxCell id="ggz4SEzuD-9y7MbeMjTg-10" value="Email" style="shape=partialRectangle;connectable=0;fillColor=none;top=0;left=0;bottom=0;right=0;align=left;spacingLeft=6;overflow=hidden;whiteSpace=wrap;html=1;" parent="MTy-CeRvN0DArt2pfCo6-20" vertex="1">
          <mxGeometry x="30" y="90" width="130" height="30" as="geometry">
            <mxRectangle width="290" height="30" as="alternateBounds" />
          </mxGeometry>
        </mxCell>
        <mxCell id="MTy-CeRvN0DArt2pfCo6-235" value="Username" style="shape=partialRectangle;connectable=0;fillColor=none;top=0;left=0;bottom=0;right=0;align=left;spacingLeft=6;overflow=hidden;whiteSpace=wrap;html=1;" parent="MTy-CeRvN0DArt2pfCo6-20" vertex="1">
          <mxGeometry x="30" y="60" width="130" height="30" as="geometry">
            <mxRectangle width="290" height="30" as="alternateBounds" />
          </mxGeometry>
        </mxCell>
        <mxCell id="MTy-CeRvN0DArt2pfCo6-236" value="&lt;b&gt;integer(64)&lt;/b&gt;" style="text;html=1;align=center;verticalAlign=middle;resizable=0;points=[];autosize=1;strokeColor=none;fillColor=none;" parent="MTy-CeRvN0DArt2pfCo6-20" vertex="1">
          <mxGeometry x="165" y="30" width="80" height="30" as="geometry" />
        </mxCell>
        <mxCell id="MTy-CeRvN0DArt2pfCo6-237" value="NOT NULL" style="shape=partialRectangle;connectable=0;fillColor=none;top=0;left=0;bottom=0;right=0;fontStyle=1;overflow=hidden;whiteSpace=wrap;html=1;" parent="MTy-CeRvN0DArt2pfCo6-20" vertex="1">
          <mxGeometry x="250" y="30" width="70" height="30" as="geometry">
            <mxRectangle width="30" height="30" as="alternateBounds" />
          </mxGeometry>
        </mxCell>
        <mxCell id="aKff7ISgaeGH02d5SOeT-93" value="" style="line;strokeWidth=1;rotatable=0;dashed=0;labelPosition=right;align=left;verticalAlign=middle;spacingTop=0;spacingLeft=6;points=[];portConstraint=eastwest;" vertex="1" parent="MTy-CeRvN0DArt2pfCo6-20">
          <mxGeometry y="265" width="320" height="10" as="geometry" />
        </mxCell>
        <mxCell id="aKff7ISgaeGH02d5SOeT-94" value="HasPremiumUntil" style="shape=partialRectangle;connectable=0;fillColor=none;top=0;left=0;bottom=0;right=0;align=left;spacingLeft=6;overflow=hidden;whiteSpace=wrap;html=1;" vertex="1" parent="MTy-CeRvN0DArt2pfCo6-20">
          <mxGeometry x="30" y="270" width="290" height="30" as="geometry">
            <mxRectangle width="290" height="30" as="alternateBounds" />
          </mxGeometry>
        </mxCell>
        <mxCell id="aKff7ISgaeGH02d5SOeT-95" value="" style="shape=partialRectangle;connectable=0;fillColor=none;top=0;left=0;bottom=0;right=0;fontStyle=1;overflow=hidden;whiteSpace=wrap;html=1;" vertex="1" parent="MTy-CeRvN0DArt2pfCo6-20">
          <mxGeometry x="250" y="270" width="70" height="30" as="geometry">
            <mxRectangle width="30" height="30" as="alternateBounds" />
          </mxGeometry>
        </mxCell>
        <mxCell id="aKff7ISgaeGH02d5SOeT-96" value="&lt;b&gt;datetime&lt;/b&gt;" style="text;html=1;align=center;verticalAlign=middle;resizable=0;points=[];autosize=1;strokeColor=none;fillColor=none;" vertex="1" parent="MTy-CeRvN0DArt2pfCo6-20">
          <mxGeometry x="170" y="270" width="70" height="30" as="geometry" />
        </mxCell>
        <mxCell id="MTy-CeRvN0DArt2pfCo6-240" value="" style="group" parent="1" vertex="1" connectable="0">
          <mxGeometry x="-16" y="120" width="320" height="270" as="geometry" />
        </mxCell>
        <mxCell id="MTy-CeRvN0DArt2pfCo6-241" value="Doctor" style="shape=table;startSize=30;container=1;collapsible=1;childLayout=tableLayout;fixedRows=1;rowLines=0;fontStyle=1;align=center;resizeLast=1;html=1;" parent="MTy-CeRvN0DArt2pfCo6-240" vertex="1">
          <mxGeometry width="320" height="270" as="geometry">
            <mxRectangle width="70" height="30" as="alternateBounds" />
          </mxGeometry>
        </mxCell>
        <mxCell id="MTy-CeRvN0DArt2pfCo6-242" value="" style="shape=tableRow;horizontal=0;startSize=0;swimlaneHead=0;swimlaneBody=0;fillColor=none;collapsible=0;dropTarget=0;points=[[0,0.5],[1,0.5]];portConstraint=eastwest;top=0;left=0;right=0;bottom=0;" parent="MTy-CeRvN0DArt2pfCo6-241" vertex="1">
          <mxGeometry y="30" width="320" height="30" as="geometry" />
        </mxCell>
        <mxCell id="MTy-CeRvN0DArt2pfCo6-243" value="" style="shape=partialRectangle;connectable=0;fillColor=none;top=0;left=0;bottom=0;right=0;editable=1;overflow=hidden;whiteSpace=wrap;html=1;" parent="MTy-CeRvN0DArt2pfCo6-242" vertex="1">
          <mxGeometry width="30" height="30" as="geometry">
            <mxRectangle width="30" height="30" as="alternateBounds" />
          </mxGeometry>
        </mxCell>
        <mxCell id="MTy-CeRvN0DArt2pfCo6-244" value="&lt;b&gt;DoctorID&lt;/b&gt;" style="shape=partialRectangle;connectable=0;fillColor=none;top=0;left=0;bottom=0;right=0;align=left;spacingLeft=6;overflow=hidden;whiteSpace=wrap;html=1;" parent="MTy-CeRvN0DArt2pfCo6-242" vertex="1">
          <mxGeometry x="30" width="290" height="30" as="geometry">
            <mxRectangle width="290" height="30" as="alternateBounds" />
          </mxGeometry>
        </mxCell>
        <mxCell id="MTy-CeRvN0DArt2pfCo6-245" value="" style="shape=tableRow;horizontal=0;startSize=0;swimlaneHead=0;swimlaneBody=0;fillColor=none;collapsible=0;dropTarget=0;points=[[0,0.5],[1,0.5]];portConstraint=eastwest;top=0;left=0;right=0;bottom=0;" parent="MTy-CeRvN0DArt2pfCo6-241" vertex="1">
          <mxGeometry y="60" width="320" height="30" as="geometry" />
        </mxCell>
        <mxCell id="MTy-CeRvN0DArt2pfCo6-246" value="" style="shape=partialRectangle;connectable=0;fillColor=none;top=0;left=0;bottom=0;right=0;editable=1;overflow=hidden;whiteSpace=wrap;html=1;" parent="MTy-CeRvN0DArt2pfCo6-245" vertex="1">
          <mxGeometry width="320" height="30" as="geometry">
            <mxRectangle width="320" height="30" as="alternateBounds" />
          </mxGeometry>
        </mxCell>
        <mxCell id="MTy-CeRvN0DArt2pfCo6-247" value="" style="shape=tableRow;horizontal=0;startSize=0;swimlaneHead=0;swimlaneBody=0;fillColor=none;collapsible=0;dropTarget=0;points=[[0,0.5],[1,0.5]];portConstraint=eastwest;top=0;left=0;right=0;bottom=0;" parent="MTy-CeRvN0DArt2pfCo6-241" vertex="1">
          <mxGeometry y="90" width="320" height="30" as="geometry" />
        </mxCell>
        <mxCell id="MTy-CeRvN0DArt2pfCo6-248" value="" style="shape=partialRectangle;connectable=0;fillColor=none;top=0;left=0;bottom=0;right=0;editable=1;overflow=hidden;whiteSpace=wrap;html=1;" parent="MTy-CeRvN0DArt2pfCo6-247" vertex="1">
          <mxGeometry width="30" height="30" as="geometry">
            <mxRectangle width="30" height="30" as="alternateBounds" />
          </mxGeometry>
        </mxCell>
        <mxCell id="MTy-CeRvN0DArt2pfCo6-249" value="" style="shape=partialRectangle;connectable=0;fillColor=none;top=0;left=0;bottom=0;right=0;align=left;spacingLeft=6;overflow=hidden;whiteSpace=wrap;html=1;" parent="MTy-CeRvN0DArt2pfCo6-247" vertex="1">
          <mxGeometry x="30" width="290" height="30" as="geometry">
            <mxRectangle width="290" height="30" as="alternateBounds" />
          </mxGeometry>
        </mxCell>
        <mxCell id="MTy-CeRvN0DArt2pfCo6-250" value="PK" style="shape=partialRectangle;connectable=0;fillColor=none;top=0;left=0;bottom=0;right=0;fontStyle=1;overflow=hidden;whiteSpace=wrap;html=1;" parent="MTy-CeRvN0DArt2pfCo6-240" vertex="1">
          <mxGeometry y="30" width="30" height="30" as="geometry">
            <mxRectangle width="30" height="30" as="alternateBounds" />
          </mxGeometry>
        </mxCell>
        <mxCell id="MTy-CeRvN0DArt2pfCo6-251" value="" style="line;strokeWidth=1;rotatable=0;dashed=0;labelPosition=right;align=left;verticalAlign=middle;spacingTop=0;spacingLeft=6;points=[];portConstraint=eastwest;" parent="MTy-CeRvN0DArt2pfCo6-240" vertex="1">
          <mxGeometry y="85" width="320" height="10" as="geometry" />
        </mxCell>
        <mxCell id="MTy-CeRvN0DArt2pfCo6-252" value="" style="line;strokeWidth=1;rotatable=0;dashed=0;labelPosition=right;align=left;verticalAlign=middle;spacingTop=0;spacingLeft=6;points=[];portConstraint=eastwest;" parent="MTy-CeRvN0DArt2pfCo6-240" vertex="1">
          <mxGeometry y="55" width="320" height="10" as="geometry" />
        </mxCell>
        <mxCell id="MTy-CeRvN0DArt2pfCo6-254" value="&lt;b&gt;varchar(64)&lt;/b&gt;" style="text;html=1;align=center;verticalAlign=middle;resizable=0;points=[];autosize=1;strokeColor=none;fillColor=none;" parent="MTy-CeRvN0DArt2pfCo6-240" vertex="1">
          <mxGeometry x="160" y="90" width="90" height="30" as="geometry" />
        </mxCell>
        <mxCell id="MTy-CeRvN0DArt2pfCo6-255" value="&lt;b&gt;varchar(64)&lt;/b&gt;" style="text;html=1;align=center;verticalAlign=middle;resizable=0;points=[];autosize=1;strokeColor=none;fillColor=none;" parent="MTy-CeRvN0DArt2pfCo6-240" vertex="1">
          <mxGeometry x="160" y="60" width="90" height="30" as="geometry" />
        </mxCell>
        <mxCell id="MTy-CeRvN0DArt2pfCo6-256" value="NOT NULL" style="shape=partialRectangle;connectable=0;fillColor=none;top=0;left=0;bottom=0;right=0;fontStyle=1;overflow=hidden;whiteSpace=wrap;html=1;" parent="MTy-CeRvN0DArt2pfCo6-240" vertex="1">
          <mxGeometry x="250" y="60" width="70" height="30" as="geometry">
            <mxRectangle width="30" height="30" as="alternateBounds" />
          </mxGeometry>
        </mxCell>
        <mxCell id="MTy-CeRvN0DArt2pfCo6-257" value="NOT NULL" style="shape=partialRectangle;connectable=0;fillColor=none;top=0;left=0;bottom=0;right=0;fontStyle=1;overflow=hidden;whiteSpace=wrap;html=1;" parent="MTy-CeRvN0DArt2pfCo6-240" vertex="1">
          <mxGeometry x="250" y="90" width="70" height="30" as="geometry">
            <mxRectangle width="30" height="30" as="alternateBounds" />
          </mxGeometry>
        </mxCell>
        <mxCell id="MTy-CeRvN0DArt2pfCo6-258" value="NOT NULL" style="shape=partialRectangle;connectable=0;fillColor=none;top=0;left=0;bottom=0;right=0;fontStyle=1;overflow=hidden;whiteSpace=wrap;html=1;" parent="MTy-CeRvN0DArt2pfCo6-240" vertex="1">
          <mxGeometry x="250" y="120" width="70" height="30" as="geometry">
            <mxRectangle width="30" height="30" as="alternateBounds" />
          </mxGeometry>
        </mxCell>
        <mxCell id="MTy-CeRvN0DArt2pfCo6-259" value="" style="line;strokeWidth=1;rotatable=0;dashed=0;labelPosition=right;align=left;verticalAlign=middle;spacingTop=0;spacingLeft=6;points=[];portConstraint=eastwest;" parent="MTy-CeRvN0DArt2pfCo6-240" vertex="1">
          <mxGeometry y="115" width="320" height="10" as="geometry" />
        </mxCell>
        <mxCell id="MTy-CeRvN0DArt2pfCo6-260" value="&lt;b&gt;varchar(64)&lt;/b&gt;" style="text;html=1;align=center;verticalAlign=middle;resizable=0;points=[];autosize=1;strokeColor=none;fillColor=none;" parent="MTy-CeRvN0DArt2pfCo6-240" vertex="1">
          <mxGeometry x="160" y="120" width="90" height="30" as="geometry" />
        </mxCell>
        <mxCell id="MTy-CeRvN0DArt2pfCo6-261" value="UCN" style="shape=partialRectangle;connectable=0;fillColor=none;top=0;left=0;bottom=0;right=0;align=left;spacingLeft=6;overflow=hidden;whiteSpace=wrap;html=1;" parent="MTy-CeRvN0DArt2pfCo6-240" vertex="1">
          <mxGeometry x="30" y="150" width="290" height="30" as="geometry">
            <mxRectangle width="290" height="30" as="alternateBounds" />
          </mxGeometry>
        </mxCell>
        <mxCell id="MTy-CeRvN0DArt2pfCo6-262" value="NOT NULL" style="shape=partialRectangle;connectable=0;fillColor=none;top=0;left=0;bottom=0;right=0;fontStyle=1;overflow=hidden;whiteSpace=wrap;html=1;" parent="MTy-CeRvN0DArt2pfCo6-240" vertex="1">
          <mxGeometry x="250" y="150" width="70" height="30" as="geometry">
            <mxRectangle width="30" height="30" as="alternateBounds" />
          </mxGeometry>
        </mxCell>
        <mxCell id="MTy-CeRvN0DArt2pfCo6-263" value="" style="line;strokeWidth=1;rotatable=0;dashed=0;labelPosition=right;align=left;verticalAlign=middle;spacingTop=0;spacingLeft=6;points=[];portConstraint=eastwest;" parent="MTy-CeRvN0DArt2pfCo6-240" vertex="1">
          <mxGeometry y="145" width="320" height="10" as="geometry" />
        </mxCell>
        <mxCell id="MTy-CeRvN0DArt2pfCo6-264" value="&lt;b&gt;varchar(10)&lt;/b&gt;" style="text;html=1;align=center;verticalAlign=middle;resizable=0;points=[];autosize=1;strokeColor=none;fillColor=none;" parent="MTy-CeRvN0DArt2pfCo6-240" vertex="1">
          <mxGeometry x="160" y="150" width="90" height="30" as="geometry" />
        </mxCell>
        <mxCell id="MTy-CeRvN0DArt2pfCo6-265" value="Names" style="shape=partialRectangle;connectable=0;fillColor=none;top=0;left=0;bottom=0;right=0;align=left;spacingLeft=6;overflow=hidden;whiteSpace=wrap;html=1;" parent="MTy-CeRvN0DArt2pfCo6-240" vertex="1">
          <mxGeometry x="30" y="180" width="290" height="30" as="geometry">
            <mxRectangle width="290" height="30" as="alternateBounds" />
          </mxGeometry>
        </mxCell>
        <mxCell id="MTy-CeRvN0DArt2pfCo6-266" value="NOT NULL" style="shape=partialRectangle;connectable=0;fillColor=none;top=0;left=0;bottom=0;right=0;fontStyle=1;overflow=hidden;whiteSpace=wrap;html=1;" parent="MTy-CeRvN0DArt2pfCo6-240" vertex="1">
          <mxGeometry x="250" y="180" width="70" height="30" as="geometry">
            <mxRectangle width="30" height="30" as="alternateBounds" />
          </mxGeometry>
        </mxCell>
        <mxCell id="MTy-CeRvN0DArt2pfCo6-267" value="" style="line;strokeWidth=1;rotatable=0;dashed=0;labelPosition=right;align=left;verticalAlign=middle;spacingTop=0;spacingLeft=6;points=[];portConstraint=eastwest;" parent="MTy-CeRvN0DArt2pfCo6-240" vertex="1">
          <mxGeometry y="175" width="320" height="10" as="geometry" />
        </mxCell>
        <mxCell id="MTy-CeRvN0DArt2pfCo6-268" value="&lt;b&gt;varchar(255)&lt;/b&gt;" style="text;html=1;align=center;verticalAlign=middle;resizable=0;points=[];autosize=1;strokeColor=none;fillColor=none;" parent="MTy-CeRvN0DArt2pfCo6-240" vertex="1">
          <mxGeometry x="160" y="180" width="90" height="30" as="geometry" />
        </mxCell>
        <mxCell id="MTy-CeRvN0DArt2pfCo6-269" value="Address" style="shape=partialRectangle;connectable=0;fillColor=none;top=0;left=0;bottom=0;right=0;align=left;spacingLeft=6;overflow=hidden;whiteSpace=wrap;html=1;" parent="MTy-CeRvN0DArt2pfCo6-240" vertex="1">
          <mxGeometry x="30" y="210" width="290" height="30" as="geometry">
            <mxRectangle width="290" height="30" as="alternateBounds" />
          </mxGeometry>
        </mxCell>
        <mxCell id="MTy-CeRvN0DArt2pfCo6-270" value="NOT NULL" style="shape=partialRectangle;connectable=0;fillColor=none;top=0;left=0;bottom=0;right=0;fontStyle=1;overflow=hidden;whiteSpace=wrap;html=1;" parent="MTy-CeRvN0DArt2pfCo6-240" vertex="1">
          <mxGeometry x="250" y="210" width="70" height="30" as="geometry">
            <mxRectangle width="30" height="30" as="alternateBounds" />
          </mxGeometry>
        </mxCell>
        <mxCell id="MTy-CeRvN0DArt2pfCo6-271" value="" style="line;strokeWidth=1;rotatable=0;dashed=0;labelPosition=right;align=left;verticalAlign=middle;spacingTop=0;spacingLeft=6;points=[];portConstraint=eastwest;" parent="MTy-CeRvN0DArt2pfCo6-240" vertex="1">
          <mxGeometry y="205" width="320" height="10" as="geometry" />
        </mxCell>
        <mxCell id="MTy-CeRvN0DArt2pfCo6-272" value="&lt;b&gt;varchar(255)&lt;/b&gt;" style="text;html=1;align=center;verticalAlign=middle;resizable=0;points=[];autosize=1;strokeColor=none;fillColor=none;" parent="MTy-CeRvN0DArt2pfCo6-240" vertex="1">
          <mxGeometry x="160" y="210" width="90" height="30" as="geometry" />
        </mxCell>
        <mxCell id="MTy-CeRvN0DArt2pfCo6-273" value="PhoneNumber" style="shape=partialRectangle;connectable=0;fillColor=none;top=0;left=0;bottom=0;right=0;align=left;spacingLeft=6;overflow=hidden;whiteSpace=wrap;html=1;" parent="MTy-CeRvN0DArt2pfCo6-240" vertex="1">
          <mxGeometry x="30" y="240" width="290" height="30" as="geometry">
            <mxRectangle width="290" height="30" as="alternateBounds" />
          </mxGeometry>
        </mxCell>
        <mxCell id="MTy-CeRvN0DArt2pfCo6-274" value="NOT NULL" style="shape=partialRectangle;connectable=0;fillColor=none;top=0;left=0;bottom=0;right=0;fontStyle=1;overflow=hidden;whiteSpace=wrap;html=1;" parent="MTy-CeRvN0DArt2pfCo6-240" vertex="1">
          <mxGeometry x="250" y="240" width="70" height="30" as="geometry">
            <mxRectangle width="30" height="30" as="alternateBounds" />
          </mxGeometry>
        </mxCell>
        <mxCell id="MTy-CeRvN0DArt2pfCo6-275" value="&lt;b&gt;varchar(10)&lt;/b&gt;" style="text;html=1;align=center;verticalAlign=middle;resizable=0;points=[];autosize=1;strokeColor=none;fillColor=none;" parent="MTy-CeRvN0DArt2pfCo6-240" vertex="1">
          <mxGeometry x="160" y="240" width="90" height="30" as="geometry" />
        </mxCell>
        <mxCell id="MTy-CeRvN0DArt2pfCo6-276" value="" style="shape=partialRectangle;connectable=0;fillColor=none;top=0;left=0;bottom=0;right=0;editable=1;overflow=hidden;whiteSpace=wrap;html=1;" parent="MTy-CeRvN0DArt2pfCo6-240" vertex="1">
          <mxGeometry y="120" width="30" height="30" as="geometry">
            <mxRectangle width="30" height="30" as="alternateBounds" />
          </mxGeometry>
        </mxCell>
        <mxCell id="MTy-CeRvN0DArt2pfCo6-277" value="" style="endArrow=none;html=1;rounded=0;" parent="MTy-CeRvN0DArt2pfCo6-240" edge="1">
          <mxGeometry width="50" height="50" relative="1" as="geometry">
            <mxPoint x="30" y="120" as="sourcePoint" />
            <mxPoint x="30" y="270" as="targetPoint" />
          </mxGeometry>
        </mxCell>
        <mxCell id="MTy-CeRvN0DArt2pfCo6-278" value="" style="line;strokeWidth=1;rotatable=0;dashed=0;labelPosition=right;align=left;verticalAlign=middle;spacingTop=0;spacingLeft=6;points=[];portConstraint=eastwest;" parent="MTy-CeRvN0DArt2pfCo6-240" vertex="1">
          <mxGeometry y="235" width="320" height="10" as="geometry" />
        </mxCell>
        <mxCell id="MTy-CeRvN0DArt2pfCo6-279" value="Password" style="shape=partialRectangle;connectable=0;fillColor=none;top=0;left=0;bottom=0;right=0;align=left;spacingLeft=6;overflow=hidden;whiteSpace=wrap;html=1;" parent="MTy-CeRvN0DArt2pfCo6-240" vertex="1">
          <mxGeometry x="30" y="120" width="290" height="30" as="geometry">
            <mxRectangle width="290" height="30" as="alternateBounds" />
          </mxGeometry>
        </mxCell>
        <mxCell id="MTy-CeRvN0DArt2pfCo6-280" value="" style="shape=partialRectangle;connectable=0;fillColor=none;top=0;left=0;bottom=0;right=0;fontStyle=1;overflow=hidden;whiteSpace=wrap;html=1;" parent="MTy-CeRvN0DArt2pfCo6-240" vertex="1">
          <mxGeometry y="90" width="30" height="30" as="geometry">
            <mxRectangle width="30" height="30" as="alternateBounds" />
          </mxGeometry>
        </mxCell>
        <mxCell id="MTy-CeRvN0DArt2pfCo6-281" value="Email" style="shape=partialRectangle;connectable=0;fillColor=none;top=0;left=0;bottom=0;right=0;align=left;spacingLeft=6;overflow=hidden;whiteSpace=wrap;html=1;" parent="MTy-CeRvN0DArt2pfCo6-240" vertex="1">
          <mxGeometry x="30" y="90" width="130" height="30" as="geometry">
            <mxRectangle width="290" height="30" as="alternateBounds" />
          </mxGeometry>
        </mxCell>
        <mxCell id="MTy-CeRvN0DArt2pfCo6-282" value="Username" style="shape=partialRectangle;connectable=0;fillColor=none;top=0;left=0;bottom=0;right=0;align=left;spacingLeft=6;overflow=hidden;whiteSpace=wrap;html=1;" parent="MTy-CeRvN0DArt2pfCo6-240" vertex="1">
          <mxGeometry x="30" y="60" width="130" height="30" as="geometry">
            <mxRectangle width="290" height="30" as="alternateBounds" />
          </mxGeometry>
        </mxCell>
        <mxCell id="MTy-CeRvN0DArt2pfCo6-283" value="&lt;b&gt;integer(64)&lt;/b&gt;" style="text;html=1;align=center;verticalAlign=middle;resizable=0;points=[];autosize=1;strokeColor=none;fillColor=none;" parent="MTy-CeRvN0DArt2pfCo6-240" vertex="1">
          <mxGeometry x="165" y="30" width="80" height="30" as="geometry" />
        </mxCell>
        <mxCell id="MTy-CeRvN0DArt2pfCo6-284" value="NOT NULL" style="shape=partialRectangle;connectable=0;fillColor=none;top=0;left=0;bottom=0;right=0;fontStyle=1;overflow=hidden;whiteSpace=wrap;html=1;" parent="MTy-CeRvN0DArt2pfCo6-240" vertex="1">
          <mxGeometry x="250" y="30" width="70" height="30" as="geometry">
            <mxRectangle width="30" height="30" as="alternateBounds" />
          </mxGeometry>
        </mxCell>
        <mxCell id="MTy-CeRvN0DArt2pfCo6-293" value="" style="edgeStyle=entityRelationEdgeStyle;fontSize=12;html=1;endArrow=ERoneToMany;rounded=0;" parent="1" edge="1">
          <mxGeometry width="100" height="100" relative="1" as="geometry">
            <mxPoint x="304" y="169.5" as="sourcePoint" />
            <mxPoint x="464" y="500" as="targetPoint" />
          </mxGeometry>
        </mxCell>
        <mxCell id="MTy-CeRvN0DArt2pfCo6-294" value="" style="edgeStyle=entityRelationEdgeStyle;fontSize=12;html=1;endArrow=ERoneToMany;rounded=0;" parent="1" edge="1">
          <mxGeometry width="100" height="100" relative="1" as="geometry">
            <mxPoint x="304" y="470" as="sourcePoint" />
            <mxPoint x="464" y="530" as="targetPoint" />
          </mxGeometry>
        </mxCell>
        <mxCell id="MTy-CeRvN0DArt2pfCo6-295" value="Assignments" style="shape=table;startSize=30;container=1;collapsible=1;childLayout=tableLayout;fixedRows=1;rowLines=0;fontStyle=1;align=center;resizeLast=1;html=1;" parent="1" vertex="1">
          <mxGeometry x="464" y="453.93999999999994" width="320" height="121" as="geometry">
            <mxRectangle width="70" height="30" as="alternateBounds" />
          </mxGeometry>
        </mxCell>
        <mxCell id="MTy-CeRvN0DArt2pfCo6-296" value="" style="shape=tableRow;horizontal=0;startSize=0;swimlaneHead=0;swimlaneBody=0;fillColor=none;collapsible=0;dropTarget=0;points=[[0,0.5],[1,0.5]];portConstraint=eastwest;top=0;left=0;right=0;bottom=0;" parent="MTy-CeRvN0DArt2pfCo6-295" vertex="1">
          <mxGeometry y="30" width="320" height="30" as="geometry" />
        </mxCell>
        <mxCell id="MTy-CeRvN0DArt2pfCo6-297" value="" style="shape=partialRectangle;connectable=0;fillColor=none;top=0;left=0;bottom=0;right=0;editable=1;overflow=hidden;whiteSpace=wrap;html=1;" parent="MTy-CeRvN0DArt2pfCo6-296" vertex="1">
          <mxGeometry width="30" height="30" as="geometry">
            <mxRectangle width="30" height="30" as="alternateBounds" />
          </mxGeometry>
        </mxCell>
        <mxCell id="MTy-CeRvN0DArt2pfCo6-298" value="&lt;b&gt;DoctorID&lt;/b&gt;" style="shape=partialRectangle;connectable=0;fillColor=none;top=0;left=0;bottom=0;right=0;align=left;spacingLeft=6;overflow=hidden;whiteSpace=wrap;html=1;" parent="MTy-CeRvN0DArt2pfCo6-296" vertex="1">
          <mxGeometry x="30" width="290" height="30" as="geometry">
            <mxRectangle width="290" height="30" as="alternateBounds" />
          </mxGeometry>
        </mxCell>
        <mxCell id="MTy-CeRvN0DArt2pfCo6-299" value="" style="shape=tableRow;horizontal=0;startSize=0;swimlaneHead=0;swimlaneBody=0;fillColor=none;collapsible=0;dropTarget=0;points=[[0,0.5],[1,0.5]];portConstraint=eastwest;top=0;left=0;right=0;bottom=0;" parent="MTy-CeRvN0DArt2pfCo6-295" vertex="1">
          <mxGeometry y="60" width="320" height="30" as="geometry" />
        </mxCell>
        <mxCell id="MTy-CeRvN0DArt2pfCo6-300" value="" style="shape=partialRectangle;connectable=0;fillColor=none;top=0;left=0;bottom=0;right=0;editable=1;overflow=hidden;whiteSpace=wrap;html=1;" parent="MTy-CeRvN0DArt2pfCo6-299" vertex="1">
          <mxGeometry width="30" height="30" as="geometry">
            <mxRectangle width="30" height="30" as="alternateBounds" />
          </mxGeometry>
        </mxCell>
        <mxCell id="MTy-CeRvN0DArt2pfCo6-301" value="&lt;b&gt;UserID&lt;/b&gt;" style="shape=partialRectangle;connectable=0;fillColor=none;top=0;left=0;bottom=0;right=0;align=left;spacingLeft=6;overflow=hidden;whiteSpace=wrap;html=1;" parent="MTy-CeRvN0DArt2pfCo6-299" vertex="1">
          <mxGeometry x="30" width="290" height="30" as="geometry">
            <mxRectangle width="290" height="30" as="alternateBounds" />
          </mxGeometry>
        </mxCell>
        <mxCell id="MTy-CeRvN0DArt2pfCo6-302" value="" style="shape=tableRow;horizontal=0;startSize=0;swimlaneHead=0;swimlaneBody=0;fillColor=none;collapsible=0;dropTarget=0;points=[[0,0.5],[1,0.5]];portConstraint=eastwest;top=0;left=0;right=0;bottom=0;" parent="MTy-CeRvN0DArt2pfCo6-295" vertex="1">
          <mxGeometry y="90" width="320" height="30" as="geometry" />
        </mxCell>
        <mxCell id="MTy-CeRvN0DArt2pfCo6-303" value="" style="shape=partialRectangle;connectable=0;fillColor=none;top=0;left=0;bottom=0;right=0;editable=1;overflow=hidden;whiteSpace=wrap;html=1;" parent="MTy-CeRvN0DArt2pfCo6-302" vertex="1">
          <mxGeometry width="30" height="30" as="geometry">
            <mxRectangle width="30" height="30" as="alternateBounds" />
          </mxGeometry>
        </mxCell>
        <mxCell id="MTy-CeRvN0DArt2pfCo6-304" value="DateTime" style="shape=partialRectangle;connectable=0;fillColor=none;top=0;left=0;bottom=0;right=0;align=left;spacingLeft=6;overflow=hidden;whiteSpace=wrap;html=1;" parent="MTy-CeRvN0DArt2pfCo6-302" vertex="1">
          <mxGeometry x="30" width="290" height="30" as="geometry">
            <mxRectangle width="290" height="30" as="alternateBounds" />
          </mxGeometry>
        </mxCell>
        <mxCell id="MTy-CeRvN0DArt2pfCo6-305" value="PK" style="shape=partialRectangle;connectable=0;fillColor=none;top=0;left=0;bottom=0;right=0;fontStyle=1;overflow=hidden;whiteSpace=wrap;html=1;" parent="1" vertex="1">
          <mxGeometry x="464" y="484.3277551020408" width="30" height="29.38775510204082" as="geometry">
            <mxRectangle width="30" height="30" as="alternateBounds" />
          </mxGeometry>
        </mxCell>
        <mxCell id="MTy-CeRvN0DArt2pfCo6-306" value="" style="line;strokeWidth=1;rotatable=0;dashed=0;labelPosition=right;align=left;verticalAlign=middle;spacingTop=0;spacingLeft=6;points=[];portConstraint=eastwest;" parent="1" vertex="1">
          <mxGeometry x="464" y="539.205306122449" width="320" height="9.795918367346943" as="geometry" />
        </mxCell>
        <mxCell id="MTy-CeRvN0DArt2pfCo6-307" value="" style="line;strokeWidth=1;rotatable=0;dashed=0;labelPosition=right;align=left;verticalAlign=middle;spacingTop=0;spacingLeft=6;points=[];portConstraint=eastwest;" parent="1" vertex="1">
          <mxGeometry x="464" y="508.81755102040813" width="320" height="9.795918367346943" as="geometry" />
        </mxCell>
        <mxCell id="MTy-CeRvN0DArt2pfCo6-308" value="PK" style="shape=partialRectangle;connectable=0;fillColor=none;top=0;left=0;bottom=0;right=0;fontStyle=1;overflow=hidden;whiteSpace=wrap;html=1;" parent="1" vertex="1">
          <mxGeometry x="464" y="513.7155102040816" width="30" height="29.38775510204082" as="geometry">
            <mxRectangle width="30" height="30" as="alternateBounds" />
          </mxGeometry>
        </mxCell>
        <mxCell id="MTy-CeRvN0DArt2pfCo6-309" value="&lt;b&gt;integer(64)&lt;/b&gt;" style="text;html=1;align=center;verticalAlign=middle;resizable=0;points=[];autosize=1;strokeColor=none;fillColor=none;" parent="1" vertex="1">
          <mxGeometry x="629" y="513.7155102040816" width="80" height="30" as="geometry" />
        </mxCell>
        <mxCell id="MTy-CeRvN0DArt2pfCo6-310" value="&lt;b&gt;integer(64)&lt;/b&gt;" style="text;html=1;align=center;verticalAlign=middle;resizable=0;points=[];autosize=1;strokeColor=none;fillColor=none;" parent="1" vertex="1">
          <mxGeometry x="629" y="484.3277551020408" width="80" height="30" as="geometry" />
        </mxCell>
        <mxCell id="MTy-CeRvN0DArt2pfCo6-311" value="NOT NULL" style="shape=partialRectangle;connectable=0;fillColor=none;top=0;left=0;bottom=0;right=0;fontStyle=1;overflow=hidden;whiteSpace=wrap;html=1;" parent="1" vertex="1">
          <mxGeometry x="714" y="484.3277551020408" width="70" height="29.38775510204082" as="geometry">
            <mxRectangle width="30" height="30" as="alternateBounds" />
          </mxGeometry>
        </mxCell>
        <mxCell id="MTy-CeRvN0DArt2pfCo6-312" value="NOT NULL" style="shape=partialRectangle;connectable=0;fillColor=none;top=0;left=0;bottom=0;right=0;fontStyle=1;overflow=hidden;whiteSpace=wrap;html=1;" parent="1" vertex="1">
          <mxGeometry x="714" y="513.7155102040816" width="70" height="29.38775510204082" as="geometry">
            <mxRectangle width="30" height="30" as="alternateBounds" />
          </mxGeometry>
        </mxCell>
        <mxCell id="MTy-CeRvN0DArt2pfCo6-313" value="NOT NULL" style="shape=partialRectangle;connectable=0;fillColor=none;top=0;left=0;bottom=0;right=0;fontStyle=1;overflow=hidden;whiteSpace=wrap;html=1;" parent="1" vertex="1">
          <mxGeometry x="714" y="544.3232653061224" width="70" height="29.38775510204082" as="geometry">
            <mxRectangle width="30" height="30" as="alternateBounds" />
          </mxGeometry>
        </mxCell>
        <mxCell id="MTy-CeRvN0DArt2pfCo6-314" value="" style="line;strokeWidth=1;rotatable=0;dashed=0;labelPosition=right;align=left;verticalAlign=middle;spacingTop=0;spacingLeft=6;points=[];portConstraint=eastwest;" parent="1" vertex="1">
          <mxGeometry x="464" y="569.5930612244898" width="320" height="9.795918367346943" as="geometry" />
        </mxCell>
        <mxCell id="MTy-CeRvN0DArt2pfCo6-315" value="" style="endArrow=none;html=1;rounded=0;" parent="1" edge="1">
          <mxGeometry width="50" height="50" relative="1" as="geometry">
            <mxPoint x="494" y="572.4910204081632" as="sourcePoint" />
            <mxPoint x="494" y="572.4910204081632" as="targetPoint" />
          </mxGeometry>
        </mxCell>
        <mxCell id="MTy-CeRvN0DArt2pfCo6-316" value="&lt;b&gt;datetime&lt;/b&gt;" style="text;html=1;align=center;verticalAlign=middle;resizable=0;points=[];autosize=1;strokeColor=none;fillColor=none;" parent="1" vertex="1">
          <mxGeometry x="634" y="544.3255102040816" width="70" height="30" as="geometry" />
        </mxCell>
        <mxCell id="MTy-CeRvN0DArt2pfCo6-327" value="Employment" style="shape=table;startSize=30;container=1;collapsible=1;childLayout=tableLayout;fixedRows=1;rowLines=0;fontStyle=1;align=center;resizeLast=1;html=1;" parent="1" vertex="1">
          <mxGeometry x="464" y="309.39" width="320" height="91" as="geometry">
            <mxRectangle width="70" height="30" as="alternateBounds" />
          </mxGeometry>
        </mxCell>
        <mxCell id="MTy-CeRvN0DArt2pfCo6-328" value="" style="shape=tableRow;horizontal=0;startSize=0;swimlaneHead=0;swimlaneBody=0;fillColor=none;collapsible=0;dropTarget=0;points=[[0,0.5],[1,0.5]];portConstraint=eastwest;top=0;left=0;right=0;bottom=0;" parent="MTy-CeRvN0DArt2pfCo6-327" vertex="1">
          <mxGeometry y="30" width="320" height="30" as="geometry" />
        </mxCell>
        <mxCell id="MTy-CeRvN0DArt2pfCo6-329" value="" style="shape=partialRectangle;connectable=0;fillColor=none;top=0;left=0;bottom=0;right=0;editable=1;overflow=hidden;whiteSpace=wrap;html=1;" parent="MTy-CeRvN0DArt2pfCo6-328" vertex="1">
          <mxGeometry width="30" height="30" as="geometry">
            <mxRectangle width="30" height="30" as="alternateBounds" />
          </mxGeometry>
        </mxCell>
        <mxCell id="MTy-CeRvN0DArt2pfCo6-330" value="&lt;b&gt;DoctorID&lt;/b&gt;" style="shape=partialRectangle;connectable=0;fillColor=none;top=0;left=0;bottom=0;right=0;align=left;spacingLeft=6;overflow=hidden;whiteSpace=wrap;html=1;" parent="MTy-CeRvN0DArt2pfCo6-328" vertex="1">
          <mxGeometry x="30" width="290" height="30" as="geometry">
            <mxRectangle width="290" height="30" as="alternateBounds" />
          </mxGeometry>
        </mxCell>
        <mxCell id="MTy-CeRvN0DArt2pfCo6-331" value="" style="shape=tableRow;horizontal=0;startSize=0;swimlaneHead=0;swimlaneBody=0;fillColor=none;collapsible=0;dropTarget=0;points=[[0,0.5],[1,0.5]];portConstraint=eastwest;top=0;left=0;right=0;bottom=0;" parent="MTy-CeRvN0DArt2pfCo6-327" vertex="1">
          <mxGeometry y="60" width="320" height="30" as="geometry" />
        </mxCell>
        <mxCell id="MTy-CeRvN0DArt2pfCo6-332" value="" style="shape=partialRectangle;connectable=0;fillColor=none;top=0;left=0;bottom=0;right=0;editable=1;overflow=hidden;whiteSpace=wrap;html=1;" parent="MTy-CeRvN0DArt2pfCo6-331" vertex="1">
          <mxGeometry width="30" height="30" as="geometry">
            <mxRectangle width="30" height="30" as="alternateBounds" />
          </mxGeometry>
        </mxCell>
        <mxCell id="MTy-CeRvN0DArt2pfCo6-333" value="&lt;b&gt;MedicalCenterID&lt;/b&gt;" style="shape=partialRectangle;connectable=0;fillColor=none;top=0;left=0;bottom=0;right=0;align=left;spacingLeft=6;overflow=hidden;whiteSpace=wrap;html=1;" parent="MTy-CeRvN0DArt2pfCo6-331" vertex="1">
          <mxGeometry x="30" width="290" height="30" as="geometry">
            <mxRectangle width="290" height="30" as="alternateBounds" />
          </mxGeometry>
        </mxCell>
        <mxCell id="MTy-CeRvN0DArt2pfCo6-337" value="PK" style="shape=partialRectangle;connectable=0;fillColor=none;top=0;left=0;bottom=0;right=0;fontStyle=1;overflow=hidden;whiteSpace=wrap;html=1;" parent="1" vertex="1">
          <mxGeometry x="464" y="339.7777551020408" width="30" height="29.38775510204082" as="geometry">
            <mxRectangle width="30" height="30" as="alternateBounds" />
          </mxGeometry>
        </mxCell>
        <mxCell id="MTy-CeRvN0DArt2pfCo6-339" value="" style="line;strokeWidth=1;rotatable=0;dashed=0;labelPosition=right;align=left;verticalAlign=middle;spacingTop=0;spacingLeft=6;points=[];portConstraint=eastwest;" parent="1" vertex="1">
          <mxGeometry x="464" y="364.2675510204082" width="320" height="9.795918367346943" as="geometry" />
        </mxCell>
        <mxCell id="MTy-CeRvN0DArt2pfCo6-340" value="PK" style="shape=partialRectangle;connectable=0;fillColor=none;top=0;left=0;bottom=0;right=0;fontStyle=1;overflow=hidden;whiteSpace=wrap;html=1;" parent="1" vertex="1">
          <mxGeometry x="464" y="369.16551020408167" width="30" height="29.38775510204082" as="geometry">
            <mxRectangle width="30" height="30" as="alternateBounds" />
          </mxGeometry>
        </mxCell>
        <mxCell id="MTy-CeRvN0DArt2pfCo6-341" value="&lt;b&gt;integer(64)&lt;/b&gt;" style="text;html=1;align=center;verticalAlign=middle;resizable=0;points=[];autosize=1;strokeColor=none;fillColor=none;" parent="1" vertex="1">
          <mxGeometry x="629" y="369.16551020408167" width="80" height="30" as="geometry" />
        </mxCell>
        <mxCell id="MTy-CeRvN0DArt2pfCo6-342" value="&lt;b&gt;integer(64)&lt;/b&gt;" style="text;html=1;align=center;verticalAlign=middle;resizable=0;points=[];autosize=1;strokeColor=none;fillColor=none;" parent="1" vertex="1">
          <mxGeometry x="629" y="339.7777551020408" width="80" height="30" as="geometry" />
        </mxCell>
        <mxCell id="MTy-CeRvN0DArt2pfCo6-343" value="NOT NULL" style="shape=partialRectangle;connectable=0;fillColor=none;top=0;left=0;bottom=0;right=0;fontStyle=1;overflow=hidden;whiteSpace=wrap;html=1;" parent="1" vertex="1">
          <mxGeometry x="714" y="339.7777551020408" width="70" height="29.38775510204082" as="geometry">
            <mxRectangle width="30" height="30" as="alternateBounds" />
          </mxGeometry>
        </mxCell>
        <mxCell id="MTy-CeRvN0DArt2pfCo6-344" value="NOT NULL" style="shape=partialRectangle;connectable=0;fillColor=none;top=0;left=0;bottom=0;right=0;fontStyle=1;overflow=hidden;whiteSpace=wrap;html=1;" parent="1" vertex="1">
          <mxGeometry x="714" y="369.16551020408167" width="70" height="29.38775510204082" as="geometry">
            <mxRectangle width="30" height="30" as="alternateBounds" />
          </mxGeometry>
        </mxCell>
        <mxCell id="MTy-CeRvN0DArt2pfCo6-349" value="" style="edgeStyle=entityRelationEdgeStyle;fontSize=12;html=1;endArrow=ERoneToMany;rounded=0;entryX=0;entryY=0.5;entryDx=0;entryDy=0;" parent="1" target="MTy-CeRvN0DArt2pfCo6-327" edge="1">
          <mxGeometry width="100" height="100" relative="1" as="geometry">
            <mxPoint x="304" y="170" as="sourcePoint" />
            <mxPoint x="474" y="510" as="targetPoint" />
          </mxGeometry>
        </mxCell>
        <mxCell id="MTy-CeRvN0DArt2pfCo6-413" value="MedicalCenter" style="shape=table;startSize=30;container=1;collapsible=1;childLayout=tableLayout;fixedRows=1;rowLines=0;fontStyle=1;align=center;resizeLast=1;html=1;" parent="1" vertex="1">
          <mxGeometry x="394" y="610" width="420" height="390" as="geometry">
            <mxRectangle width="70" height="30" as="alternateBounds" />
          </mxGeometry>
        </mxCell>
        <mxCell id="MTy-CeRvN0DArt2pfCo6-414" value="" style="shape=tableRow;horizontal=0;startSize=0;swimlaneHead=0;swimlaneBody=0;fillColor=none;collapsible=0;dropTarget=0;points=[[0,0.5],[1,0.5]];portConstraint=eastwest;top=0;left=0;right=0;bottom=0;" parent="MTy-CeRvN0DArt2pfCo6-413" vertex="1">
          <mxGeometry y="30" width="420" height="30" as="geometry" />
        </mxCell>
        <mxCell id="MTy-CeRvN0DArt2pfCo6-415" value="" style="shape=partialRectangle;connectable=0;fillColor=none;top=0;left=0;bottom=0;right=0;editable=1;overflow=hidden;whiteSpace=wrap;html=1;" parent="MTy-CeRvN0DArt2pfCo6-414" vertex="1">
          <mxGeometry width="30" height="30" as="geometry">
            <mxRectangle width="30" height="30" as="alternateBounds" />
          </mxGeometry>
        </mxCell>
        <mxCell id="MTy-CeRvN0DArt2pfCo6-416" value="&lt;b&gt;MedicalCenterID&lt;/b&gt;" style="shape=partialRectangle;connectable=0;fillColor=none;top=0;left=0;bottom=0;right=0;align=left;spacingLeft=6;overflow=hidden;whiteSpace=wrap;html=1;" parent="MTy-CeRvN0DArt2pfCo6-414" vertex="1">
          <mxGeometry x="30" width="390" height="30" as="geometry">
            <mxRectangle width="390" height="30" as="alternateBounds" />
          </mxGeometry>
        </mxCell>
        <mxCell id="MTy-CeRvN0DArt2pfCo6-417" value="" style="shape=tableRow;horizontal=0;startSize=0;swimlaneHead=0;swimlaneBody=0;fillColor=none;collapsible=0;dropTarget=0;points=[[0,0.5],[1,0.5]];portConstraint=eastwest;top=0;left=0;right=0;bottom=0;" parent="MTy-CeRvN0DArt2pfCo6-413" vertex="1">
          <mxGeometry y="60" width="420" height="30" as="geometry" />
        </mxCell>
        <mxCell id="MTy-CeRvN0DArt2pfCo6-418" value="" style="shape=partialRectangle;connectable=0;fillColor=none;top=0;left=0;bottom=0;right=0;editable=1;overflow=hidden;whiteSpace=wrap;html=1;" parent="MTy-CeRvN0DArt2pfCo6-417" vertex="1">
          <mxGeometry width="30" height="30" as="geometry">
            <mxRectangle width="30" height="30" as="alternateBounds" />
          </mxGeometry>
        </mxCell>
        <mxCell id="MTy-CeRvN0DArt2pfCo6-419" value="MedicalCenterUsername" style="shape=partialRectangle;connectable=0;fillColor=none;top=0;left=0;bottom=0;right=0;align=left;spacingLeft=6;overflow=hidden;whiteSpace=wrap;html=1;" parent="MTy-CeRvN0DArt2pfCo6-417" vertex="1">
          <mxGeometry x="30" width="390" height="30" as="geometry">
            <mxRectangle width="390" height="30" as="alternateBounds" />
          </mxGeometry>
        </mxCell>
        <mxCell id="MTy-CeRvN0DArt2pfCo6-420" value="" style="shape=tableRow;horizontal=0;startSize=0;swimlaneHead=0;swimlaneBody=0;fillColor=none;collapsible=0;dropTarget=0;points=[[0,0.5],[1,0.5]];portConstraint=eastwest;top=0;left=0;right=0;bottom=0;" parent="MTy-CeRvN0DArt2pfCo6-413" vertex="1">
          <mxGeometry y="90" width="420" height="30" as="geometry" />
        </mxCell>
        <mxCell id="MTy-CeRvN0DArt2pfCo6-421" value="" style="shape=partialRectangle;connectable=0;fillColor=none;top=0;left=0;bottom=0;right=0;editable=1;overflow=hidden;whiteSpace=wrap;html=1;" parent="MTy-CeRvN0DArt2pfCo6-420" vertex="1">
          <mxGeometry width="30" height="30" as="geometry">
            <mxRectangle width="30" height="30" as="alternateBounds" />
          </mxGeometry>
        </mxCell>
        <mxCell id="MTy-CeRvN0DArt2pfCo6-422" value="Email" style="shape=partialRectangle;connectable=0;fillColor=none;top=0;left=0;bottom=0;right=0;align=left;spacingLeft=6;overflow=hidden;whiteSpace=wrap;html=1;" parent="MTy-CeRvN0DArt2pfCo6-420" vertex="1">
          <mxGeometry x="30" width="390" height="30" as="geometry">
            <mxRectangle width="390" height="30" as="alternateBounds" />
          </mxGeometry>
        </mxCell>
        <mxCell id="MTy-CeRvN0DArt2pfCo6-423" value="PK" style="shape=partialRectangle;connectable=0;fillColor=none;top=0;left=0;bottom=0;right=0;fontStyle=1;overflow=hidden;whiteSpace=wrap;html=1;" parent="1" vertex="1">
          <mxGeometry x="394" y="640" width="30" height="30" as="geometry">
            <mxRectangle width="30" height="30" as="alternateBounds" />
          </mxGeometry>
        </mxCell>
        <mxCell id="MTy-CeRvN0DArt2pfCo6-424" value="" style="line;strokeWidth=1;rotatable=0;dashed=0;labelPosition=right;align=left;verticalAlign=middle;spacingTop=0;spacingLeft=6;points=[];portConstraint=eastwest;" parent="1" vertex="1">
          <mxGeometry x="394" y="695" width="420" height="10" as="geometry" />
        </mxCell>
        <mxCell id="MTy-CeRvN0DArt2pfCo6-425" value="" style="line;strokeWidth=1;rotatable=0;dashed=0;labelPosition=right;align=left;verticalAlign=middle;spacingTop=0;spacingLeft=6;points=[];portConstraint=eastwest;" parent="1" vertex="1">
          <mxGeometry x="394" y="665" width="420" height="10" as="geometry" />
        </mxCell>
        <mxCell id="MTy-CeRvN0DArt2pfCo6-427" value="&lt;b&gt;varchar(64)&lt;/b&gt;" style="text;html=1;align=center;verticalAlign=middle;resizable=0;points=[];autosize=1;strokeColor=none;fillColor=none;" parent="1" vertex="1">
          <mxGeometry x="632.1300000000001" y="670" width="90" height="30" as="geometry" />
        </mxCell>
        <mxCell id="MTy-CeRvN0DArt2pfCo6-428" value="&lt;b&gt;Integer(64)&lt;/b&gt;" style="text;html=1;align=center;verticalAlign=middle;resizable=0;points=[];autosize=1;strokeColor=none;fillColor=none;" parent="1" vertex="1">
          <mxGeometry x="637.1300000000001" y="640" width="80" height="30" as="geometry" />
        </mxCell>
        <mxCell id="MTy-CeRvN0DArt2pfCo6-429" value="NOT NULL" style="shape=partialRectangle;connectable=0;fillColor=none;top=0;left=0;bottom=0;right=0;fontStyle=1;overflow=hidden;whiteSpace=wrap;html=1;" parent="1" vertex="1">
          <mxGeometry x="722.125" y="640" width="91.875" height="30" as="geometry">
            <mxRectangle width="30" height="30" as="alternateBounds" />
          </mxGeometry>
        </mxCell>
        <mxCell id="MTy-CeRvN0DArt2pfCo6-430" value="NOT NULL" style="shape=partialRectangle;connectable=0;fillColor=none;top=0;left=0;bottom=0;right=0;fontStyle=1;overflow=hidden;whiteSpace=wrap;html=1;" parent="1" vertex="1">
          <mxGeometry x="722.125" y="670" width="91.875" height="30" as="geometry">
            <mxRectangle width="30" height="30" as="alternateBounds" />
          </mxGeometry>
        </mxCell>
        <mxCell id="MTy-CeRvN0DArt2pfCo6-431" value="NOT NULL" style="shape=partialRectangle;connectable=0;fillColor=none;top=0;left=0;bottom=0;right=0;fontStyle=1;overflow=hidden;whiteSpace=wrap;html=1;" parent="1" vertex="1">
          <mxGeometry x="722.135" y="730" width="91.875" height="30" as="geometry">
            <mxRectangle width="30" height="30" as="alternateBounds" />
          </mxGeometry>
        </mxCell>
        <mxCell id="MTy-CeRvN0DArt2pfCo6-432" value="" style="line;strokeWidth=1;rotatable=0;dashed=0;labelPosition=right;align=left;verticalAlign=middle;spacingTop=0;spacingLeft=6;points=[];portConstraint=eastwest;" parent="1" vertex="1">
          <mxGeometry x="394" y="725" width="420" height="10" as="geometry" />
        </mxCell>
        <mxCell id="MTy-CeRvN0DArt2pfCo6-433" value="&lt;b&gt;varchar(64)&lt;/b&gt;" style="text;html=1;align=center;verticalAlign=middle;resizable=0;points=[];autosize=1;strokeColor=none;fillColor=none;" parent="1" vertex="1">
          <mxGeometry x="632.1300000000001" y="729" width="90" height="30" as="geometry" />
        </mxCell>
        <mxCell id="MTy-CeRvN0DArt2pfCo6-434" value="PhoneNumber" style="shape=partialRectangle;connectable=0;fillColor=none;top=0;left=0;bottom=0;right=0;align=left;spacingLeft=6;overflow=hidden;whiteSpace=wrap;html=1;" parent="1" vertex="1">
          <mxGeometry x="424.0050000000001" y="759" width="380.625" height="30" as="geometry">
            <mxRectangle width="290" height="30" as="alternateBounds" />
          </mxGeometry>
        </mxCell>
        <mxCell id="MTy-CeRvN0DArt2pfCo6-435" value="NOT NULL" style="shape=partialRectangle;connectable=0;fillColor=none;top=0;left=0;bottom=0;right=0;fontStyle=1;overflow=hidden;whiteSpace=wrap;html=1;" parent="1" vertex="1">
          <mxGeometry x="722.125" y="759" width="91.875" height="30" as="geometry">
            <mxRectangle width="30" height="30" as="alternateBounds" />
          </mxGeometry>
        </mxCell>
        <mxCell id="MTy-CeRvN0DArt2pfCo6-436" value="" style="line;strokeWidth=1;rotatable=0;dashed=0;labelPosition=right;align=left;verticalAlign=middle;spacingTop=0;spacingLeft=6;points=[];portConstraint=eastwest;" parent="1" vertex="1">
          <mxGeometry x="394" y="755" width="420" height="10" as="geometry" />
        </mxCell>
        <mxCell id="MTy-CeRvN0DArt2pfCo6-437" value="&lt;b&gt;varchar(10)&lt;/b&gt;" style="text;html=1;align=center;verticalAlign=middle;resizable=0;points=[];autosize=1;strokeColor=none;fillColor=none;" parent="1" vertex="1">
          <mxGeometry x="632.1300000000001" y="759" width="90" height="30" as="geometry" />
        </mxCell>
        <mxCell id="MTy-CeRvN0DArt2pfCo6-438" value="MedicalCenterName" style="shape=partialRectangle;connectable=0;fillColor=none;top=0;left=0;bottom=0;right=0;align=left;spacingLeft=6;overflow=hidden;whiteSpace=wrap;html=1;" parent="1" vertex="1">
          <mxGeometry x="424.0050000000001" y="789" width="380.625" height="30" as="geometry">
            <mxRectangle width="290" height="30" as="alternateBounds" />
          </mxGeometry>
        </mxCell>
        <mxCell id="MTy-CeRvN0DArt2pfCo6-439" value="NOT NULL" style="shape=partialRectangle;connectable=0;fillColor=none;top=0;left=0;bottom=0;right=0;fontStyle=1;overflow=hidden;whiteSpace=wrap;html=1;" parent="1" vertex="1">
          <mxGeometry x="722.125" y="789" width="91.875" height="30" as="geometry">
            <mxRectangle width="30" height="30" as="alternateBounds" />
          </mxGeometry>
        </mxCell>
        <mxCell id="MTy-CeRvN0DArt2pfCo6-440" value="" style="line;strokeWidth=1;rotatable=0;dashed=0;labelPosition=right;align=left;verticalAlign=middle;spacingTop=0;spacingLeft=6;points=[];portConstraint=eastwest;" parent="1" vertex="1">
          <mxGeometry x="394" y="785" width="420" height="10" as="geometry" />
        </mxCell>
        <mxCell id="MTy-CeRvN0DArt2pfCo6-441" value="&lt;b&gt;varchar(255)&lt;/b&gt;" style="text;html=1;align=center;verticalAlign=middle;resizable=0;points=[];autosize=1;strokeColor=none;fillColor=none;" parent="1" vertex="1">
          <mxGeometry x="632.1300000000001" y="789" width="90" height="30" as="geometry" />
        </mxCell>
        <mxCell id="MTy-CeRvN0DArt2pfCo6-442" value="Address" style="shape=partialRectangle;connectable=0;fillColor=none;top=0;left=0;bottom=0;right=0;align=left;spacingLeft=6;overflow=hidden;whiteSpace=wrap;html=1;" parent="1" vertex="1">
          <mxGeometry x="424.0050000000001" y="819" width="380.625" height="30" as="geometry">
            <mxRectangle width="290" height="30" as="alternateBounds" />
          </mxGeometry>
        </mxCell>
        <mxCell id="MTy-CeRvN0DArt2pfCo6-443" value="NOT NULL" style="shape=partialRectangle;connectable=0;fillColor=none;top=0;left=0;bottom=0;right=0;fontStyle=1;overflow=hidden;whiteSpace=wrap;html=1;" parent="1" vertex="1">
          <mxGeometry x="722.125" y="819" width="91.875" height="30" as="geometry">
            <mxRectangle width="30" height="30" as="alternateBounds" />
          </mxGeometry>
        </mxCell>
        <mxCell id="MTy-CeRvN0DArt2pfCo6-444" value="" style="line;strokeWidth=1;rotatable=0;dashed=0;labelPosition=right;align=left;verticalAlign=middle;spacingTop=0;spacingLeft=6;points=[];portConstraint=eastwest;" parent="1" vertex="1">
          <mxGeometry x="394" y="815" width="420" height="10" as="geometry" />
        </mxCell>
        <mxCell id="MTy-CeRvN0DArt2pfCo6-445" value="&lt;b&gt;varchar(255)&lt;/b&gt;" style="text;html=1;align=center;verticalAlign=middle;resizable=0;points=[];autosize=1;strokeColor=none;fillColor=none;" parent="1" vertex="1">
          <mxGeometry x="632.1300000000001" y="819" width="90" height="30" as="geometry" />
        </mxCell>
        <mxCell id="MTy-CeRvN0DArt2pfCo6-446" value="CityCountry" style="shape=partialRectangle;connectable=0;fillColor=none;top=0;left=0;bottom=0;right=0;align=left;spacingLeft=6;overflow=hidden;whiteSpace=wrap;html=1;" parent="1" vertex="1">
          <mxGeometry x="424.0050000000001" y="849" width="380.625" height="30" as="geometry">
            <mxRectangle width="290" height="30" as="alternateBounds" />
          </mxGeometry>
        </mxCell>
        <mxCell id="MTy-CeRvN0DArt2pfCo6-447" value="NOT NULL" style="shape=partialRectangle;connectable=0;fillColor=none;top=0;left=0;bottom=0;right=0;fontStyle=1;overflow=hidden;whiteSpace=wrap;html=1;" parent="1" vertex="1">
          <mxGeometry x="722.125" y="849" width="91.875" height="30" as="geometry">
            <mxRectangle width="30" height="30" as="alternateBounds" />
          </mxGeometry>
        </mxCell>
        <mxCell id="MTy-CeRvN0DArt2pfCo6-448" value="&lt;b&gt;varchar(255)&lt;/b&gt;" style="text;html=1;align=center;verticalAlign=middle;resizable=0;points=[];autosize=1;strokeColor=none;fillColor=none;" parent="1" vertex="1">
          <mxGeometry x="632.1300000000001" y="849" width="90" height="30" as="geometry" />
        </mxCell>
        <mxCell id="MTy-CeRvN0DArt2pfCo6-449" value="" style="shape=partialRectangle;connectable=0;fillColor=none;top=0;left=0;bottom=0;right=0;editable=1;overflow=hidden;whiteSpace=wrap;html=1;" parent="1" vertex="1">
          <mxGeometry x="394" y="730" width="39.375" height="30" as="geometry">
            <mxRectangle width="30" height="30" as="alternateBounds" />
          </mxGeometry>
        </mxCell>
        <mxCell id="MTy-CeRvN0DArt2pfCo6-450" value="" style="endArrow=none;html=1;rounded=0;" parent="1" edge="1">
          <mxGeometry width="50" height="50" relative="1" as="geometry">
            <mxPoint x="424.0050000000001" y="730" as="sourcePoint" />
            <mxPoint x="424" y="1000" as="targetPoint" />
          </mxGeometry>
        </mxCell>
        <mxCell id="MTy-CeRvN0DArt2pfCo6-451" value="" style="line;strokeWidth=1;rotatable=0;dashed=0;labelPosition=right;align=left;verticalAlign=middle;spacingTop=0;spacingLeft=6;points=[];portConstraint=eastwest;" parent="1" vertex="1">
          <mxGeometry x="394" y="845" width="420" height="10" as="geometry" />
        </mxCell>
        <mxCell id="MTy-CeRvN0DArt2pfCo6-452" value="RepresentativeNames" style="shape=partialRectangle;connectable=0;fillColor=none;top=0;left=0;bottom=0;right=0;align=left;spacingLeft=6;overflow=hidden;whiteSpace=wrap;html=1;" parent="1" vertex="1">
          <mxGeometry x="424.0050000000001" y="879" width="380.625" height="30" as="geometry">
            <mxRectangle width="290" height="30" as="alternateBounds" />
          </mxGeometry>
        </mxCell>
        <mxCell id="MTy-CeRvN0DArt2pfCo6-453" value="NOT NULL" style="shape=partialRectangle;connectable=0;fillColor=none;top=0;left=0;bottom=0;right=0;fontStyle=1;overflow=hidden;whiteSpace=wrap;html=1;" parent="1" vertex="1">
          <mxGeometry x="722.125" y="879" width="91.875" height="30" as="geometry">
            <mxRectangle width="30" height="30" as="alternateBounds" />
          </mxGeometry>
        </mxCell>
        <mxCell id="MTy-CeRvN0DArt2pfCo6-454" value="&lt;b&gt;varchar(255)&lt;/b&gt;" style="text;html=1;align=center;verticalAlign=middle;resizable=0;points=[];autosize=1;strokeColor=none;fillColor=none;" parent="1" vertex="1">
          <mxGeometry x="632.1300000000001" y="879" width="90" height="30" as="geometry" />
        </mxCell>
        <mxCell id="MTy-CeRvN0DArt2pfCo6-455" value="" style="line;strokeWidth=1;rotatable=0;dashed=0;labelPosition=right;align=left;verticalAlign=middle;spacingTop=0;spacingLeft=6;points=[];portConstraint=eastwest;" parent="1" vertex="1">
          <mxGeometry x="394" y="875" width="420" height="10" as="geometry" />
        </mxCell>
        <mxCell id="MTy-CeRvN0DArt2pfCo6-456" value="RepresentativePhoneNumber" style="shape=partialRectangle;connectable=0;fillColor=none;top=0;left=0;bottom=0;right=0;align=left;spacingLeft=6;overflow=hidden;whiteSpace=wrap;html=1;" parent="1" vertex="1">
          <mxGeometry x="424.0050000000001" y="909" width="380.625" height="30" as="geometry">
            <mxRectangle width="290" height="30" as="alternateBounds" />
          </mxGeometry>
        </mxCell>
        <mxCell id="MTy-CeRvN0DArt2pfCo6-457" value="NOT NULL" style="shape=partialRectangle;connectable=0;fillColor=none;top=0;left=0;bottom=0;right=0;fontStyle=1;overflow=hidden;whiteSpace=wrap;html=1;" parent="1" vertex="1">
          <mxGeometry x="722.125" y="909" width="91.875" height="30" as="geometry">
            <mxRectangle width="30" height="30" as="alternateBounds" />
          </mxGeometry>
        </mxCell>
        <mxCell id="MTy-CeRvN0DArt2pfCo6-458" value="&lt;b&gt;varchar(10)&lt;/b&gt;" style="text;html=1;align=center;verticalAlign=middle;resizable=0;points=[];autosize=1;strokeColor=none;fillColor=none;" parent="1" vertex="1">
          <mxGeometry x="632.1300000000001" y="909" width="90" height="30" as="geometry" />
        </mxCell>
        <mxCell id="MTy-CeRvN0DArt2pfCo6-459" value="" style="line;strokeWidth=1;rotatable=0;dashed=0;labelPosition=right;align=left;verticalAlign=middle;spacingTop=0;spacingLeft=6;points=[];portConstraint=eastwest;" parent="1" vertex="1">
          <mxGeometry x="394" y="905" width="420" height="10" as="geometry" />
        </mxCell>
        <mxCell id="MTy-CeRvN0DArt2pfCo6-460" value="RepresentativeEmail" style="shape=partialRectangle;connectable=0;fillColor=none;top=0;left=0;bottom=0;right=0;align=left;spacingLeft=6;overflow=hidden;whiteSpace=wrap;html=1;" parent="1" vertex="1">
          <mxGeometry x="424.0050000000001" y="939" width="380.625" height="30" as="geometry">
            <mxRectangle width="290" height="30" as="alternateBounds" />
          </mxGeometry>
        </mxCell>
        <mxCell id="MTy-CeRvN0DArt2pfCo6-461" value="NOT NULL" style="shape=partialRectangle;connectable=0;fillColor=none;top=0;left=0;bottom=0;right=0;fontStyle=1;overflow=hidden;whiteSpace=wrap;html=1;" parent="1" vertex="1">
          <mxGeometry x="722.125" y="939" width="91.875" height="30" as="geometry">
            <mxRectangle width="30" height="30" as="alternateBounds" />
          </mxGeometry>
        </mxCell>
        <mxCell id="MTy-CeRvN0DArt2pfCo6-462" value="&lt;b&gt;varchar(255)&lt;/b&gt;" style="text;html=1;align=center;verticalAlign=middle;resizable=0;points=[];autosize=1;strokeColor=none;fillColor=none;" parent="1" vertex="1">
          <mxGeometry x="632.1300000000001" y="939" width="90" height="30" as="geometry" />
        </mxCell>
        <mxCell id="MTy-CeRvN0DArt2pfCo6-463" value="" style="line;strokeWidth=1;rotatable=0;dashed=0;labelPosition=right;align=left;verticalAlign=middle;spacingTop=0;spacingLeft=6;points=[];portConstraint=eastwest;" parent="1" vertex="1">
          <mxGeometry x="394" y="935" width="420" height="10" as="geometry" />
        </mxCell>
        <mxCell id="MTy-CeRvN0DArt2pfCo6-464" value="RepresentativePosition" style="shape=partialRectangle;connectable=0;fillColor=none;top=0;left=0;bottom=0;right=0;align=left;spacingLeft=6;overflow=hidden;whiteSpace=wrap;html=1;" parent="1" vertex="1">
          <mxGeometry x="424" y="969" width="380.63" height="30" as="geometry">
            <mxRectangle width="290" height="30" as="alternateBounds" />
          </mxGeometry>
        </mxCell>
        <mxCell id="MTy-CeRvN0DArt2pfCo6-465" value="NOT NULL" style="shape=partialRectangle;connectable=0;fillColor=none;top=0;left=0;bottom=0;right=0;fontStyle=1;overflow=hidden;whiteSpace=wrap;html=1;" parent="1" vertex="1">
          <mxGeometry x="722.125" y="969" width="91.875" height="30" as="geometry">
            <mxRectangle width="30" height="30" as="alternateBounds" />
          </mxGeometry>
        </mxCell>
        <mxCell id="MTy-CeRvN0DArt2pfCo6-466" value="&lt;b&gt;varchar(255)&lt;/b&gt;" style="text;html=1;align=center;verticalAlign=middle;resizable=0;points=[];autosize=1;strokeColor=none;fillColor=none;" parent="1" vertex="1">
          <mxGeometry x="632.1300000000001" y="969" width="90" height="30" as="geometry" />
        </mxCell>
        <mxCell id="MTy-CeRvN0DArt2pfCo6-467" value="" style="line;strokeWidth=1;rotatable=0;dashed=0;labelPosition=right;align=left;verticalAlign=middle;spacingTop=0;spacingLeft=6;points=[];portConstraint=eastwest;" parent="1" vertex="1">
          <mxGeometry x="394" y="965" width="420" height="10" as="geometry" />
        </mxCell>
        <mxCell id="MTy-CeRvN0DArt2pfCo6-468" value="Password" style="shape=partialRectangle;connectable=0;fillColor=none;top=0;left=0;bottom=0;right=0;align=left;spacingLeft=6;overflow=hidden;whiteSpace=wrap;html=1;" parent="1" vertex="1">
          <mxGeometry x="424.01" y="730" width="390" height="30" as="geometry">
            <mxRectangle width="390" height="30" as="alternateBounds" />
          </mxGeometry>
        </mxCell>
        <mxCell id="MTy-CeRvN0DArt2pfCo6-470" value="&lt;b&gt;varchar(64)&lt;/b&gt;" style="text;html=1;align=center;verticalAlign=middle;resizable=0;points=[];autosize=1;strokeColor=none;fillColor=none;" parent="1" vertex="1">
          <mxGeometry x="637.1300000000001" y="700" width="90" height="30" as="geometry" />
        </mxCell>
        <mxCell id="MTy-CeRvN0DArt2pfCo6-471" value="NOT NULL" style="shape=partialRectangle;connectable=0;fillColor=none;top=0;left=0;bottom=0;right=0;fontStyle=1;overflow=hidden;whiteSpace=wrap;html=1;" parent="1" vertex="1">
          <mxGeometry x="722.135" y="700" width="91.875" height="30" as="geometry">
            <mxRectangle width="30" height="30" as="alternateBounds" />
          </mxGeometry>
        </mxCell>
        <mxCell id="MTy-CeRvN0DArt2pfCo6-472" value="" style="endArrow=none;html=1;rounded=0;" parent="1" edge="1">
          <mxGeometry width="50" height="50" relative="1" as="geometry">
            <mxPoint x="514" y="653.2310204081632" as="sourcePoint" />
            <mxPoint x="514" y="653.2310204081632" as="targetPoint" />
          </mxGeometry>
        </mxCell>
        <mxCell id="MTy-CeRvN0DArt2pfCo6-473" value="" style="endArrow=none;html=1;rounded=0;" parent="1" edge="1">
          <mxGeometry width="50" height="50" relative="1" as="geometry">
            <mxPoint x="454" y="385" as="sourcePoint" />
            <mxPoint x="464" y="385" as="targetPoint" />
          </mxGeometry>
        </mxCell>
        <mxCell id="MTy-CeRvN0DArt2pfCo6-474" value="" style="endArrow=none;html=1;rounded=0;" parent="1" edge="1">
          <mxGeometry width="50" height="50" relative="1" as="geometry">
            <mxPoint x="454" y="385" as="sourcePoint" />
            <mxPoint x="464" y="389" as="targetPoint" />
          </mxGeometry>
        </mxCell>
        <mxCell id="MTy-CeRvN0DArt2pfCo6-475" value="" style="endArrow=none;html=1;rounded=0;" parent="1" edge="1">
          <mxGeometry width="50" height="50" relative="1" as="geometry">
            <mxPoint x="454" y="385" as="sourcePoint" />
            <mxPoint x="464" y="381.17" as="targetPoint" />
          </mxGeometry>
        </mxCell>
        <mxCell id="MTy-CeRvN0DArt2pfCo6-476" value="" style="endArrow=none;html=1;rounded=0;" parent="1" edge="1">
          <mxGeometry width="50" height="50" relative="1" as="geometry">
            <mxPoint x="454" y="381" as="sourcePoint" />
            <mxPoint x="454" y="389.44" as="targetPoint" />
          </mxGeometry>
        </mxCell>
        <mxCell id="MTy-CeRvN0DArt2pfCo6-477" value="" style="endArrow=none;html=1;rounded=0;" parent="1" edge="1">
          <mxGeometry relative="1" as="geometry">
            <mxPoint x="453.38" y="385.08" as="sourcePoint" />
            <mxPoint x="433.38" y="385.08" as="targetPoint" />
          </mxGeometry>
        </mxCell>
        <mxCell id="MTy-CeRvN0DArt2pfCo6-478" value="" style="endArrow=none;html=1;rounded=0;" parent="1" edge="1">
          <mxGeometry relative="1" as="geometry">
            <mxPoint x="434" y="430" as="sourcePoint" />
            <mxPoint x="434" y="385" as="targetPoint" />
          </mxGeometry>
        </mxCell>
        <mxCell id="MTy-CeRvN0DArt2pfCo6-479" value="" style="endArrow=none;html=1;rounded=0;" parent="1" edge="1">
          <mxGeometry relative="1" as="geometry">
            <mxPoint x="864" y="430" as="sourcePoint" />
            <mxPoint x="434" y="430" as="targetPoint" />
          </mxGeometry>
        </mxCell>
        <mxCell id="MTy-CeRvN0DArt2pfCo6-480" value="" style="endArrow=none;html=1;rounded=0;" parent="1" edge="1">
          <mxGeometry relative="1" as="geometry">
            <mxPoint x="864" y="430" as="sourcePoint" />
            <mxPoint x="864" y="655" as="targetPoint" />
          </mxGeometry>
        </mxCell>
        <mxCell id="MTy-CeRvN0DArt2pfCo6-481" value="" style="endArrow=none;html=1;rounded=0;" parent="1" edge="1">
          <mxGeometry relative="1" as="geometry">
            <mxPoint x="814" y="655" as="sourcePoint" />
            <mxPoint x="864" y="655" as="targetPoint" />
          </mxGeometry>
        </mxCell>
        <mxCell id="aKff7ISgaeGH02d5SOeT-7" value="DoctorReview" style="shape=table;startSize=30;container=1;collapsible=1;childLayout=tableLayout;fixedRows=1;rowLines=0;fontStyle=1;align=center;resizeLast=1;html=1;" vertex="1" parent="1">
          <mxGeometry x="-470" y="120" width="320" height="120" as="geometry">
            <mxRectangle width="70" height="30" as="alternateBounds" />
          </mxGeometry>
        </mxCell>
        <mxCell id="aKff7ISgaeGH02d5SOeT-8" value="" style="shape=tableRow;horizontal=0;startSize=0;swimlaneHead=0;swimlaneBody=0;fillColor=none;collapsible=0;dropTarget=0;points=[[0,0.5],[1,0.5]];portConstraint=eastwest;top=0;left=0;right=0;bottom=0;" vertex="1" parent="aKff7ISgaeGH02d5SOeT-7">
          <mxGeometry y="30" width="320" height="30" as="geometry" />
        </mxCell>
        <mxCell id="aKff7ISgaeGH02d5SOeT-9" value="" style="shape=partialRectangle;connectable=0;fillColor=none;top=0;left=0;bottom=0;right=0;editable=1;overflow=hidden;whiteSpace=wrap;html=1;" vertex="1" parent="aKff7ISgaeGH02d5SOeT-8">
          <mxGeometry width="30" height="30" as="geometry">
            <mxRectangle width="30" height="30" as="alternateBounds" />
          </mxGeometry>
        </mxCell>
        <mxCell id="aKff7ISgaeGH02d5SOeT-10" value="&lt;b&gt;DoctorID&lt;/b&gt;" style="shape=partialRectangle;connectable=0;fillColor=none;top=0;left=0;bottom=0;right=0;align=left;spacingLeft=6;overflow=hidden;whiteSpace=wrap;html=1;" vertex="1" parent="aKff7ISgaeGH02d5SOeT-8">
          <mxGeometry x="30" width="290" height="30" as="geometry">
            <mxRectangle width="290" height="30" as="alternateBounds" />
          </mxGeometry>
        </mxCell>
        <mxCell id="aKff7ISgaeGH02d5SOeT-11" value="" style="shape=tableRow;horizontal=0;startSize=0;swimlaneHead=0;swimlaneBody=0;fillColor=none;collapsible=0;dropTarget=0;points=[[0,0.5],[1,0.5]];portConstraint=eastwest;top=0;left=0;right=0;bottom=0;" vertex="1" parent="aKff7ISgaeGH02d5SOeT-7">
          <mxGeometry y="60" width="320" height="30" as="geometry" />
        </mxCell>
        <mxCell id="aKff7ISgaeGH02d5SOeT-12" value="" style="shape=partialRectangle;connectable=0;fillColor=none;top=0;left=0;bottom=0;right=0;editable=1;overflow=hidden;whiteSpace=wrap;html=1;" vertex="1" parent="aKff7ISgaeGH02d5SOeT-11">
          <mxGeometry width="30" height="30" as="geometry">
            <mxRectangle width="30" height="30" as="alternateBounds" />
          </mxGeometry>
        </mxCell>
        <mxCell id="aKff7ISgaeGH02d5SOeT-13" value="Rating" style="shape=partialRectangle;connectable=0;fillColor=none;top=0;left=0;bottom=0;right=0;align=left;spacingLeft=6;overflow=hidden;whiteSpace=wrap;html=1;" vertex="1" parent="aKff7ISgaeGH02d5SOeT-11">
          <mxGeometry x="30" width="290" height="30" as="geometry">
            <mxRectangle width="290" height="30" as="alternateBounds" />
          </mxGeometry>
        </mxCell>
        <mxCell id="aKff7ISgaeGH02d5SOeT-14" value="PK" style="shape=partialRectangle;connectable=0;fillColor=none;top=0;left=0;bottom=0;right=0;fontStyle=1;overflow=hidden;whiteSpace=wrap;html=1;" vertex="1" parent="1">
          <mxGeometry x="-470" y="150.38775510204084" width="30" height="29.38775510204082" as="geometry">
            <mxRectangle width="30" height="30" as="alternateBounds" />
          </mxGeometry>
        </mxCell>
        <mxCell id="aKff7ISgaeGH02d5SOeT-15" value="" style="line;strokeWidth=1;rotatable=0;dashed=0;labelPosition=right;align=left;verticalAlign=middle;spacingTop=0;spacingLeft=6;points=[];portConstraint=eastwest;" vertex="1" parent="1">
          <mxGeometry x="-470" y="174.8775510204082" width="320" height="9.795918367346943" as="geometry" />
        </mxCell>
        <mxCell id="aKff7ISgaeGH02d5SOeT-17" value="&lt;b&gt;integer(4)&lt;/b&gt;" style="text;html=1;align=center;verticalAlign=middle;resizable=0;points=[];autosize=1;strokeColor=none;fillColor=none;" vertex="1" parent="1">
          <mxGeometry x="-305" y="179.77551020408168" width="80" height="30" as="geometry" />
        </mxCell>
        <mxCell id="aKff7ISgaeGH02d5SOeT-18" value="&lt;b&gt;integer(64)&lt;/b&gt;" style="text;html=1;align=center;verticalAlign=middle;resizable=0;points=[];autosize=1;strokeColor=none;fillColor=none;" vertex="1" parent="1">
          <mxGeometry x="-305" y="150.38775510204084" width="80" height="30" as="geometry" />
        </mxCell>
        <mxCell id="aKff7ISgaeGH02d5SOeT-19" value="NOT NULL" style="shape=partialRectangle;connectable=0;fillColor=none;top=0;left=0;bottom=0;right=0;fontStyle=1;overflow=hidden;whiteSpace=wrap;html=1;" vertex="1" parent="1">
          <mxGeometry x="-220" y="150.38775510204084" width="70" height="29.38775510204082" as="geometry">
            <mxRectangle width="30" height="30" as="alternateBounds" />
          </mxGeometry>
        </mxCell>
        <mxCell id="aKff7ISgaeGH02d5SOeT-20" value="NOT NULL" style="shape=partialRectangle;connectable=0;fillColor=none;top=0;left=0;bottom=0;right=0;fontStyle=1;overflow=hidden;whiteSpace=wrap;html=1;" vertex="1" parent="1">
          <mxGeometry x="-220" y="179.77551020408168" width="70" height="29.38775510204082" as="geometry">
            <mxRectangle width="30" height="30" as="alternateBounds" />
          </mxGeometry>
        </mxCell>
        <mxCell id="aKff7ISgaeGH02d5SOeT-26" value="" style="line;strokeWidth=1;rotatable=0;dashed=0;labelPosition=right;align=left;verticalAlign=middle;spacingTop=0;spacingLeft=6;points=[];portConstraint=eastwest;" vertex="1" parent="1">
          <mxGeometry x="-470" y="205.1675510204082" width="320" height="9.795918367346943" as="geometry" />
        </mxCell>
        <mxCell id="aKff7ISgaeGH02d5SOeT-27" value="Comment" style="shape=partialRectangle;connectable=0;fillColor=none;top=0;left=0;bottom=0;right=0;align=left;spacingLeft=6;overflow=hidden;whiteSpace=wrap;html=1;" vertex="1" parent="1">
          <mxGeometry x="-440" y="210" width="290" height="30" as="geometry">
            <mxRectangle width="290" height="30" as="alternateBounds" />
          </mxGeometry>
        </mxCell>
        <mxCell id="aKff7ISgaeGH02d5SOeT-28" value="&lt;b&gt;varchar(1024)&lt;/b&gt;" style="text;html=1;align=center;verticalAlign=middle;resizable=0;points=[];autosize=1;strokeColor=none;fillColor=none;" vertex="1" parent="1">
          <mxGeometry x="-315" y="209.16551020408167" width="100" height="30" as="geometry" />
        </mxCell>
        <mxCell id="aKff7ISgaeGH02d5SOeT-29" value="NOT NULL" style="shape=partialRectangle;connectable=0;fillColor=none;top=0;left=0;bottom=0;right=0;fontStyle=1;overflow=hidden;whiteSpace=wrap;html=1;" vertex="1" parent="1">
          <mxGeometry x="-220" y="209.77551020408168" width="70" height="29.38775510204082" as="geometry">
            <mxRectangle width="30" height="30" as="alternateBounds" />
          </mxGeometry>
        </mxCell>
        <mxCell id="aKff7ISgaeGH02d5SOeT-30" value="" style="endArrow=none;html=1;rounded=0;" edge="1" parent="1">
          <mxGeometry width="50" height="50" relative="1" as="geometry">
            <mxPoint x="-440.28000000000003" y="240.15999999999997" as="sourcePoint" />
            <mxPoint x="-440.28000000000003" y="210.15999999999997" as="targetPoint" />
          </mxGeometry>
        </mxCell>
        <mxCell id="aKff7ISgaeGH02d5SOeT-31" value="MedicalCenterReview" style="shape=table;startSize=30;container=1;collapsible=1;childLayout=tableLayout;fixedRows=1;rowLines=0;fontStyle=1;align=center;resizeLast=1;html=1;" vertex="1" parent="1">
          <mxGeometry x="-16" y="743.92" width="320" height="120" as="geometry">
            <mxRectangle width="70" height="30" as="alternateBounds" />
          </mxGeometry>
        </mxCell>
        <mxCell id="aKff7ISgaeGH02d5SOeT-32" value="" style="shape=tableRow;horizontal=0;startSize=0;swimlaneHead=0;swimlaneBody=0;fillColor=none;collapsible=0;dropTarget=0;points=[[0,0.5],[1,0.5]];portConstraint=eastwest;top=0;left=0;right=0;bottom=0;" vertex="1" parent="aKff7ISgaeGH02d5SOeT-31">
          <mxGeometry y="30" width="320" height="30" as="geometry" />
        </mxCell>
        <mxCell id="aKff7ISgaeGH02d5SOeT-33" value="" style="shape=partialRectangle;connectable=0;fillColor=none;top=0;left=0;bottom=0;right=0;editable=1;overflow=hidden;whiteSpace=wrap;html=1;" vertex="1" parent="aKff7ISgaeGH02d5SOeT-32">
          <mxGeometry width="30" height="30" as="geometry">
            <mxRectangle width="30" height="30" as="alternateBounds" />
          </mxGeometry>
        </mxCell>
        <mxCell id="aKff7ISgaeGH02d5SOeT-34" value="&lt;b&gt;DoctorID&lt;/b&gt;" style="shape=partialRectangle;connectable=0;fillColor=none;top=0;left=0;bottom=0;right=0;align=left;spacingLeft=6;overflow=hidden;whiteSpace=wrap;html=1;" vertex="1" parent="aKff7ISgaeGH02d5SOeT-32">
          <mxGeometry x="30" width="290" height="30" as="geometry">
            <mxRectangle width="290" height="30" as="alternateBounds" />
          </mxGeometry>
        </mxCell>
        <mxCell id="aKff7ISgaeGH02d5SOeT-35" value="" style="shape=tableRow;horizontal=0;startSize=0;swimlaneHead=0;swimlaneBody=0;fillColor=none;collapsible=0;dropTarget=0;points=[[0,0.5],[1,0.5]];portConstraint=eastwest;top=0;left=0;right=0;bottom=0;" vertex="1" parent="aKff7ISgaeGH02d5SOeT-31">
          <mxGeometry y="60" width="320" height="30" as="geometry" />
        </mxCell>
        <mxCell id="aKff7ISgaeGH02d5SOeT-36" value="" style="shape=partialRectangle;connectable=0;fillColor=none;top=0;left=0;bottom=0;right=0;editable=1;overflow=hidden;whiteSpace=wrap;html=1;" vertex="1" parent="aKff7ISgaeGH02d5SOeT-35">
          <mxGeometry width="30" height="30" as="geometry">
            <mxRectangle width="30" height="30" as="alternateBounds" />
          </mxGeometry>
        </mxCell>
        <mxCell id="aKff7ISgaeGH02d5SOeT-37" value="Rating" style="shape=partialRectangle;connectable=0;fillColor=none;top=0;left=0;bottom=0;right=0;align=left;spacingLeft=6;overflow=hidden;whiteSpace=wrap;html=1;" vertex="1" parent="aKff7ISgaeGH02d5SOeT-35">
          <mxGeometry x="30" width="290" height="30" as="geometry">
            <mxRectangle width="290" height="30" as="alternateBounds" />
          </mxGeometry>
        </mxCell>
        <mxCell id="aKff7ISgaeGH02d5SOeT-38" value="PK" style="shape=partialRectangle;connectable=0;fillColor=none;top=0;left=0;bottom=0;right=0;fontStyle=1;overflow=hidden;whiteSpace=wrap;html=1;" vertex="1" parent="1">
          <mxGeometry x="-16" y="774.3077551020408" width="30" height="29.38775510204082" as="geometry">
            <mxRectangle width="30" height="30" as="alternateBounds" />
          </mxGeometry>
        </mxCell>
        <mxCell id="aKff7ISgaeGH02d5SOeT-39" value="" style="line;strokeWidth=1;rotatable=0;dashed=0;labelPosition=right;align=left;verticalAlign=middle;spacingTop=0;spacingLeft=6;points=[];portConstraint=eastwest;" vertex="1" parent="1">
          <mxGeometry x="-16" y="798.7975510204082" width="320" height="9.795918367346943" as="geometry" />
        </mxCell>
        <mxCell id="aKff7ISgaeGH02d5SOeT-40" value="&lt;b&gt;integer(4)&lt;/b&gt;" style="text;html=1;align=center;verticalAlign=middle;resizable=0;points=[];autosize=1;strokeColor=none;fillColor=none;" vertex="1" parent="1">
          <mxGeometry x="149" y="803.6955102040816" width="80" height="30" as="geometry" />
        </mxCell>
        <mxCell id="aKff7ISgaeGH02d5SOeT-41" value="&lt;b&gt;integer(64)&lt;/b&gt;" style="text;html=1;align=center;verticalAlign=middle;resizable=0;points=[];autosize=1;strokeColor=none;fillColor=none;" vertex="1" parent="1">
          <mxGeometry x="149" y="774.3077551020408" width="80" height="30" as="geometry" />
        </mxCell>
        <mxCell id="aKff7ISgaeGH02d5SOeT-42" value="NOT NULL" style="shape=partialRectangle;connectable=0;fillColor=none;top=0;left=0;bottom=0;right=0;fontStyle=1;overflow=hidden;whiteSpace=wrap;html=1;" vertex="1" parent="1">
          <mxGeometry x="234" y="774.3077551020408" width="70" height="29.38775510204082" as="geometry">
            <mxRectangle width="30" height="30" as="alternateBounds" />
          </mxGeometry>
        </mxCell>
        <mxCell id="aKff7ISgaeGH02d5SOeT-43" value="NOT NULL" style="shape=partialRectangle;connectable=0;fillColor=none;top=0;left=0;bottom=0;right=0;fontStyle=1;overflow=hidden;whiteSpace=wrap;html=1;" vertex="1" parent="1">
          <mxGeometry x="234" y="803.6955102040816" width="70" height="29.38775510204082" as="geometry">
            <mxRectangle width="30" height="30" as="alternateBounds" />
          </mxGeometry>
        </mxCell>
        <mxCell id="aKff7ISgaeGH02d5SOeT-44" value="" style="line;strokeWidth=1;rotatable=0;dashed=0;labelPosition=right;align=left;verticalAlign=middle;spacingTop=0;spacingLeft=6;points=[];portConstraint=eastwest;" vertex="1" parent="1">
          <mxGeometry x="-16" y="829.0875510204082" width="320" height="9.795918367346943" as="geometry" />
        </mxCell>
        <mxCell id="aKff7ISgaeGH02d5SOeT-45" value="Comment" style="shape=partialRectangle;connectable=0;fillColor=none;top=0;left=0;bottom=0;right=0;align=left;spacingLeft=6;overflow=hidden;whiteSpace=wrap;html=1;" vertex="1" parent="1">
          <mxGeometry x="14" y="833.92" width="290" height="30" as="geometry">
            <mxRectangle width="290" height="30" as="alternateBounds" />
          </mxGeometry>
        </mxCell>
        <mxCell id="aKff7ISgaeGH02d5SOeT-46" value="&lt;b&gt;varchar(1024)&lt;/b&gt;" style="text;html=1;align=center;verticalAlign=middle;resizable=0;points=[];autosize=1;strokeColor=none;fillColor=none;" vertex="1" parent="1">
          <mxGeometry x="139" y="833.0855102040816" width="100" height="30" as="geometry" />
        </mxCell>
        <mxCell id="aKff7ISgaeGH02d5SOeT-47" value="NOT NULL" style="shape=partialRectangle;connectable=0;fillColor=none;top=0;left=0;bottom=0;right=0;fontStyle=1;overflow=hidden;whiteSpace=wrap;html=1;" vertex="1" parent="1">
          <mxGeometry x="234" y="833.6955102040816" width="70" height="29.38775510204082" as="geometry">
            <mxRectangle width="30" height="30" as="alternateBounds" />
          </mxGeometry>
        </mxCell>
        <mxCell id="aKff7ISgaeGH02d5SOeT-48" value="" style="endArrow=none;html=1;rounded=0;" edge="1" parent="1">
          <mxGeometry width="50" height="50" relative="1" as="geometry">
            <mxPoint x="13.71999999999997" y="864.0799999999999" as="sourcePoint" />
            <mxPoint x="13.71999999999997" y="834.0799999999999" as="targetPoint" />
          </mxGeometry>
        </mxCell>
        <mxCell id="aKff7ISgaeGH02d5SOeT-54" value="" style="endArrow=none;html=1;rounded=0;" edge="1" parent="1">
          <mxGeometry relative="1" as="geometry">
            <mxPoint x="394" y="653" as="sourcePoint" />
            <mxPoint x="330" y="653" as="targetPoint" />
          </mxGeometry>
        </mxCell>
        <mxCell id="aKff7ISgaeGH02d5SOeT-60" value="" style="endArrow=none;html=1;rounded=0;" edge="1" parent="1">
          <mxGeometry relative="1" as="geometry">
            <mxPoint x="370" y="789" as="sourcePoint" />
            <mxPoint x="370" y="653" as="targetPoint" />
          </mxGeometry>
        </mxCell>
        <mxCell id="aKff7ISgaeGH02d5SOeT-61" value="" style="endArrow=none;html=1;rounded=0;" edge="1" parent="1">
          <mxGeometry relative="1" as="geometry">
            <mxPoint x="314" y="789" as="sourcePoint" />
            <mxPoint x="370" y="789" as="targetPoint" />
          </mxGeometry>
        </mxCell>
        <mxCell id="aKff7ISgaeGH02d5SOeT-66" value="" style="endArrow=none;html=1;rounded=0;" edge="1" parent="1">
          <mxGeometry width="50" height="50" relative="1" as="geometry">
            <mxPoint x="-26" y="165.77999999999997" as="sourcePoint" />
            <mxPoint x="-16" y="165.77999999999997" as="targetPoint" />
          </mxGeometry>
        </mxCell>
        <mxCell id="aKff7ISgaeGH02d5SOeT-67" value="" style="endArrow=none;html=1;rounded=0;" edge="1" parent="1">
          <mxGeometry width="50" height="50" relative="1" as="geometry">
            <mxPoint x="-26" y="165.77999999999997" as="sourcePoint" />
            <mxPoint x="-16" y="169.77999999999997" as="targetPoint" />
          </mxGeometry>
        </mxCell>
        <mxCell id="aKff7ISgaeGH02d5SOeT-68" value="" style="endArrow=none;html=1;rounded=0;" edge="1" parent="1">
          <mxGeometry width="50" height="50" relative="1" as="geometry">
            <mxPoint x="-26" y="165.77999999999997" as="sourcePoint" />
            <mxPoint x="-16" y="161.95000000000005" as="targetPoint" />
          </mxGeometry>
        </mxCell>
        <mxCell id="aKff7ISgaeGH02d5SOeT-69" value="" style="endArrow=none;html=1;rounded=0;" edge="1" parent="1">
          <mxGeometry width="50" height="50" relative="1" as="geometry">
            <mxPoint x="-26" y="161.77999999999997" as="sourcePoint" />
            <mxPoint x="-26" y="170.22000000000003" as="targetPoint" />
          </mxGeometry>
        </mxCell>
        <mxCell id="aKff7ISgaeGH02d5SOeT-70" value="" style="endArrow=none;html=1;rounded=0;" edge="1" parent="1">
          <mxGeometry width="50" height="50" relative="1" as="geometry">
            <mxPoint x="-150" y="166" as="sourcePoint" />
            <mxPoint x="-25" y="166" as="targetPoint" />
          </mxGeometry>
        </mxCell>
        <mxCell id="aKff7ISgaeGH02d5SOeT-71" value="" style="endArrow=none;html=1;rounded=0;" edge="1" parent="1">
          <mxGeometry width="50" height="50" relative="1" as="geometry">
            <mxPoint x="304" y="788.87" as="sourcePoint" />
            <mxPoint x="314" y="788.87" as="targetPoint" />
          </mxGeometry>
        </mxCell>
        <mxCell id="aKff7ISgaeGH02d5SOeT-72" value="" style="endArrow=none;html=1;rounded=0;" edge="1" parent="1">
          <mxGeometry width="50" height="50" relative="1" as="geometry">
            <mxPoint x="304" y="785" as="sourcePoint" />
            <mxPoint x="314" y="789" as="targetPoint" />
          </mxGeometry>
        </mxCell>
        <mxCell id="aKff7ISgaeGH02d5SOeT-73" value="" style="endArrow=none;html=1;rounded=0;" edge="1" parent="1">
          <mxGeometry width="50" height="50" relative="1" as="geometry">
            <mxPoint x="304" y="793" as="sourcePoint" />
            <mxPoint x="314" y="789.1700000000001" as="targetPoint" />
          </mxGeometry>
        </mxCell>
        <mxCell id="aKff7ISgaeGH02d5SOeT-74" value="" style="endArrow=none;html=1;rounded=0;" edge="1" parent="1">
          <mxGeometry width="50" height="50" relative="1" as="geometry">
            <mxPoint x="314" y="784.78" as="sourcePoint" />
            <mxPoint x="314" y="793.22" as="targetPoint" />
          </mxGeometry>
        </mxCell>
        <mxCell id="aKff7ISgaeGH02d5SOeT-75" value="FavouriteDoctors" style="shape=table;startSize=30;container=1;collapsible=1;childLayout=tableLayout;fixedRows=1;rowLines=0;fontStyle=1;align=center;resizeLast=1;html=1;" vertex="1" parent="1">
          <mxGeometry x="-470" y="283.49" width="320" height="90.57" as="geometry">
            <mxRectangle width="70" height="30" as="alternateBounds" />
          </mxGeometry>
        </mxCell>
        <mxCell id="aKff7ISgaeGH02d5SOeT-76" value="" style="shape=tableRow;horizontal=0;startSize=0;swimlaneHead=0;swimlaneBody=0;fillColor=none;collapsible=0;dropTarget=0;points=[[0,0.5],[1,0.5]];portConstraint=eastwest;top=0;left=0;right=0;bottom=0;" vertex="1" parent="aKff7ISgaeGH02d5SOeT-75">
          <mxGeometry y="30" width="320" height="30" as="geometry" />
        </mxCell>
        <mxCell id="aKff7ISgaeGH02d5SOeT-77" value="" style="shape=partialRectangle;connectable=0;fillColor=none;top=0;left=0;bottom=0;right=0;editable=1;overflow=hidden;whiteSpace=wrap;html=1;" vertex="1" parent="aKff7ISgaeGH02d5SOeT-76">
          <mxGeometry width="30" height="30" as="geometry">
            <mxRectangle width="30" height="30" as="alternateBounds" />
          </mxGeometry>
        </mxCell>
        <mxCell id="aKff7ISgaeGH02d5SOeT-78" value="&lt;b&gt;UserID&lt;/b&gt;" style="shape=partialRectangle;connectable=0;fillColor=none;top=0;left=0;bottom=0;right=0;align=left;spacingLeft=6;overflow=hidden;whiteSpace=wrap;html=1;" vertex="1" parent="aKff7ISgaeGH02d5SOeT-76">
          <mxGeometry x="30" width="290" height="30" as="geometry">
            <mxRectangle width="290" height="30" as="alternateBounds" />
          </mxGeometry>
        </mxCell>
        <mxCell id="aKff7ISgaeGH02d5SOeT-79" value="" style="shape=tableRow;horizontal=0;startSize=0;swimlaneHead=0;swimlaneBody=0;fillColor=none;collapsible=0;dropTarget=0;points=[[0,0.5],[1,0.5]];portConstraint=eastwest;top=0;left=0;right=0;bottom=0;" vertex="1" parent="aKff7ISgaeGH02d5SOeT-75">
          <mxGeometry y="60" width="320" height="30" as="geometry" />
        </mxCell>
        <mxCell id="aKff7ISgaeGH02d5SOeT-80" value="" style="shape=partialRectangle;connectable=0;fillColor=none;top=0;left=0;bottom=0;right=0;editable=1;overflow=hidden;whiteSpace=wrap;html=1;" vertex="1" parent="aKff7ISgaeGH02d5SOeT-79">
          <mxGeometry width="30" height="30" as="geometry">
            <mxRectangle width="30" height="30" as="alternateBounds" />
          </mxGeometry>
        </mxCell>
        <mxCell id="aKff7ISgaeGH02d5SOeT-81" value="DoctorID" style="shape=partialRectangle;connectable=0;fillColor=none;top=0;left=0;bottom=0;right=0;align=left;spacingLeft=6;overflow=hidden;whiteSpace=wrap;html=1;" vertex="1" parent="aKff7ISgaeGH02d5SOeT-79">
          <mxGeometry x="30" width="290" height="30" as="geometry">
            <mxRectangle width="290" height="30" as="alternateBounds" />
          </mxGeometry>
        </mxCell>
        <mxCell id="aKff7ISgaeGH02d5SOeT-82" value="PK" style="shape=partialRectangle;connectable=0;fillColor=none;top=0;left=0;bottom=0;right=0;fontStyle=1;overflow=hidden;whiteSpace=wrap;html=1;" vertex="1" parent="1">
          <mxGeometry x="-470" y="313.87775510204085" width="30" height="29.38775510204082" as="geometry">
            <mxRectangle width="30" height="30" as="alternateBounds" />
          </mxGeometry>
        </mxCell>
        <mxCell id="aKff7ISgaeGH02d5SOeT-83" value="" style="line;strokeWidth=1;rotatable=0;dashed=0;labelPosition=right;align=left;verticalAlign=middle;spacingTop=0;spacingLeft=6;points=[];portConstraint=eastwest;" vertex="1" parent="1">
          <mxGeometry x="-470" y="338.3675510204082" width="320" height="9.795918367346943" as="geometry" />
        </mxCell>
        <mxCell id="aKff7ISgaeGH02d5SOeT-84" value="&lt;b&gt;integer(4)&lt;/b&gt;" style="text;html=1;align=center;verticalAlign=middle;resizable=0;points=[];autosize=1;strokeColor=none;fillColor=none;" vertex="1" parent="1">
          <mxGeometry x="-305" y="343.2655102040817" width="80" height="30" as="geometry" />
        </mxCell>
        <mxCell id="aKff7ISgaeGH02d5SOeT-85" value="&lt;b&gt;integer(64)&lt;/b&gt;" style="text;html=1;align=center;verticalAlign=middle;resizable=0;points=[];autosize=1;strokeColor=none;fillColor=none;" vertex="1" parent="1">
          <mxGeometry x="-305" y="313.87775510204085" width="80" height="30" as="geometry" />
        </mxCell>
        <mxCell id="aKff7ISgaeGH02d5SOeT-86" value="NOT NULL" style="shape=partialRectangle;connectable=0;fillColor=none;top=0;left=0;bottom=0;right=0;fontStyle=1;overflow=hidden;whiteSpace=wrap;html=1;" vertex="1" parent="1">
          <mxGeometry x="-220" y="313.87775510204085" width="70" height="29.38775510204082" as="geometry">
            <mxRectangle width="30" height="30" as="alternateBounds" />
          </mxGeometry>
        </mxCell>
        <mxCell id="aKff7ISgaeGH02d5SOeT-87" value="NOT NULL" style="shape=partialRectangle;connectable=0;fillColor=none;top=0;left=0;bottom=0;right=0;fontStyle=1;overflow=hidden;whiteSpace=wrap;html=1;" vertex="1" parent="1">
          <mxGeometry x="-220" y="343.2655102040817" width="70" height="29.38775510204082" as="geometry">
            <mxRectangle width="30" height="30" as="alternateBounds" />
          </mxGeometry>
        </mxCell>
        <mxCell id="aKff7ISgaeGH02d5SOeT-97" value="PK" style="shape=partialRectangle;connectable=0;fillColor=none;top=0;left=0;bottom=0;right=0;fontStyle=1;overflow=hidden;whiteSpace=wrap;html=1;" vertex="1" parent="1">
          <mxGeometry x="-470" y="344.6677551020409" width="30" height="29.38775510204082" as="geometry">
            <mxRectangle width="30" height="30" as="alternateBounds" />
          </mxGeometry>
        </mxCell>
        <mxCell id="aKff7ISgaeGH02d5SOeT-98" value="FavouriteMedicalCenter" style="shape=table;startSize=30;container=1;collapsible=1;childLayout=tableLayout;fixedRows=1;rowLines=0;fontStyle=1;align=center;resizeLast=1;html=1;" vertex="1" parent="1">
          <mxGeometry x="-470" y="469.15" width="320" height="90.57" as="geometry">
            <mxRectangle width="70" height="30" as="alternateBounds" />
          </mxGeometry>
        </mxCell>
        <mxCell id="aKff7ISgaeGH02d5SOeT-99" value="" style="shape=tableRow;horizontal=0;startSize=0;swimlaneHead=0;swimlaneBody=0;fillColor=none;collapsible=0;dropTarget=0;points=[[0,0.5],[1,0.5]];portConstraint=eastwest;top=0;left=0;right=0;bottom=0;" vertex="1" parent="aKff7ISgaeGH02d5SOeT-98">
          <mxGeometry y="30" width="320" height="30" as="geometry" />
        </mxCell>
        <mxCell id="aKff7ISgaeGH02d5SOeT-100" value="" style="shape=partialRectangle;connectable=0;fillColor=none;top=0;left=0;bottom=0;right=0;editable=1;overflow=hidden;whiteSpace=wrap;html=1;" vertex="1" parent="aKff7ISgaeGH02d5SOeT-99">
          <mxGeometry width="30" height="30" as="geometry">
            <mxRectangle width="30" height="30" as="alternateBounds" />
          </mxGeometry>
        </mxCell>
        <mxCell id="aKff7ISgaeGH02d5SOeT-101" value="&lt;b&gt;UserID&lt;/b&gt;" style="shape=partialRectangle;connectable=0;fillColor=none;top=0;left=0;bottom=0;right=0;align=left;spacingLeft=6;overflow=hidden;whiteSpace=wrap;html=1;" vertex="1" parent="aKff7ISgaeGH02d5SOeT-99">
          <mxGeometry x="30" width="290" height="30" as="geometry">
            <mxRectangle width="290" height="30" as="alternateBounds" />
          </mxGeometry>
        </mxCell>
        <mxCell id="aKff7ISgaeGH02d5SOeT-102" value="" style="shape=tableRow;horizontal=0;startSize=0;swimlaneHead=0;swimlaneBody=0;fillColor=none;collapsible=0;dropTarget=0;points=[[0,0.5],[1,0.5]];portConstraint=eastwest;top=0;left=0;right=0;bottom=0;" vertex="1" parent="aKff7ISgaeGH02d5SOeT-98">
          <mxGeometry y="60" width="320" height="30" as="geometry" />
        </mxCell>
        <mxCell id="aKff7ISgaeGH02d5SOeT-103" value="" style="shape=partialRectangle;connectable=0;fillColor=none;top=0;left=0;bottom=0;right=0;editable=1;overflow=hidden;whiteSpace=wrap;html=1;" vertex="1" parent="aKff7ISgaeGH02d5SOeT-102">
          <mxGeometry width="30" height="30" as="geometry">
            <mxRectangle width="30" height="30" as="alternateBounds" />
          </mxGeometry>
        </mxCell>
        <mxCell id="aKff7ISgaeGH02d5SOeT-104" value="&lt;b&gt;MedicalCenterID&lt;/b&gt;" style="shape=partialRectangle;connectable=0;fillColor=none;top=0;left=0;bottom=0;right=0;align=left;spacingLeft=6;overflow=hidden;whiteSpace=wrap;html=1;" vertex="1" parent="aKff7ISgaeGH02d5SOeT-102">
          <mxGeometry x="30" width="290" height="30" as="geometry">
            <mxRectangle width="290" height="30" as="alternateBounds" />
          </mxGeometry>
        </mxCell>
        <mxCell id="aKff7ISgaeGH02d5SOeT-105" value="PK" style="shape=partialRectangle;connectable=0;fillColor=none;top=0;left=0;bottom=0;right=0;fontStyle=1;overflow=hidden;whiteSpace=wrap;html=1;" vertex="1" parent="1">
          <mxGeometry x="-470" y="499.5377551020408" width="30" height="29.38775510204082" as="geometry">
            <mxRectangle width="30" height="30" as="alternateBounds" />
          </mxGeometry>
        </mxCell>
        <mxCell id="aKff7ISgaeGH02d5SOeT-106" value="" style="line;strokeWidth=1;rotatable=0;dashed=0;labelPosition=right;align=left;verticalAlign=middle;spacingTop=0;spacingLeft=6;points=[];portConstraint=eastwest;" vertex="1" parent="1">
          <mxGeometry x="-470" y="524.0275510204082" width="320" height="9.795918367346943" as="geometry" />
        </mxCell>
        <mxCell id="aKff7ISgaeGH02d5SOeT-107" value="&lt;b&gt;integer(4)&lt;/b&gt;" style="text;html=1;align=center;verticalAlign=middle;resizable=0;points=[];autosize=1;strokeColor=none;fillColor=none;" vertex="1" parent="1">
          <mxGeometry x="-305" y="528.9255102040817" width="80" height="30" as="geometry" />
        </mxCell>
        <mxCell id="aKff7ISgaeGH02d5SOeT-108" value="&lt;b&gt;integer(64)&lt;/b&gt;" style="text;html=1;align=center;verticalAlign=middle;resizable=0;points=[];autosize=1;strokeColor=none;fillColor=none;" vertex="1" parent="1">
          <mxGeometry x="-305" y="499.5377551020408" width="80" height="30" as="geometry" />
        </mxCell>
        <mxCell id="aKff7ISgaeGH02d5SOeT-109" value="NOT NULL" style="shape=partialRectangle;connectable=0;fillColor=none;top=0;left=0;bottom=0;right=0;fontStyle=1;overflow=hidden;whiteSpace=wrap;html=1;" vertex="1" parent="1">
          <mxGeometry x="-220" y="499.5377551020408" width="70" height="29.38775510204082" as="geometry">
            <mxRectangle width="30" height="30" as="alternateBounds" />
          </mxGeometry>
        </mxCell>
        <mxCell id="aKff7ISgaeGH02d5SOeT-110" value="NOT NULL" style="shape=partialRectangle;connectable=0;fillColor=none;top=0;left=0;bottom=0;right=0;fontStyle=1;overflow=hidden;whiteSpace=wrap;html=1;" vertex="1" parent="1">
          <mxGeometry x="-220" y="528.9255102040817" width="70" height="29.38775510204082" as="geometry">
            <mxRectangle width="30" height="30" as="alternateBounds" />
          </mxGeometry>
        </mxCell>
        <mxCell id="aKff7ISgaeGH02d5SOeT-111" value="PK" style="shape=partialRectangle;connectable=0;fillColor=none;top=0;left=0;bottom=0;right=0;fontStyle=1;overflow=hidden;whiteSpace=wrap;html=1;" vertex="1" parent="1">
          <mxGeometry x="-470" y="530.3277551020409" width="30" height="29.38775510204082" as="geometry">
            <mxRectangle width="30" height="30" as="alternateBounds" />
          </mxGeometry>
        </mxCell>
        <mxCell id="aKff7ISgaeGH02d5SOeT-116" value="" style="endArrow=none;html=1;rounded=0;" edge="1" parent="1">
          <mxGeometry relative="1" as="geometry">
            <mxPoint x="330" y="735" as="sourcePoint" />
            <mxPoint x="330" y="653" as="targetPoint" />
          </mxGeometry>
        </mxCell>
        <mxCell id="aKff7ISgaeGH02d5SOeT-117" value="" style="endArrow=none;html=1;rounded=0;" edge="1" parent="1">
          <mxGeometry relative="1" as="geometry">
            <mxPoint x="330" y="735" as="sourcePoint" />
            <mxPoint x="-50" y="735" as="targetPoint" />
          </mxGeometry>
        </mxCell>
        <mxCell id="aKff7ISgaeGH02d5SOeT-118" value="" style="endArrow=none;html=1;rounded=0;" edge="1" parent="1">
          <mxGeometry relative="1" as="geometry">
            <mxPoint x="-140" y="545.02" as="sourcePoint" />
            <mxPoint x="-50" y="545" as="targetPoint" />
          </mxGeometry>
        </mxCell>
        <mxCell id="aKff7ISgaeGH02d5SOeT-119" value="" style="endArrow=none;html=1;rounded=0;" edge="1" parent="1">
          <mxGeometry width="50" height="50" relative="1" as="geometry">
            <mxPoint x="-150" y="544.89" as="sourcePoint" />
            <mxPoint x="-140" y="544.89" as="targetPoint" />
          </mxGeometry>
        </mxCell>
        <mxCell id="aKff7ISgaeGH02d5SOeT-120" value="" style="endArrow=none;html=1;rounded=0;" edge="1" parent="1">
          <mxGeometry width="50" height="50" relative="1" as="geometry">
            <mxPoint x="-150" y="541.02" as="sourcePoint" />
            <mxPoint x="-140" y="545.02" as="targetPoint" />
          </mxGeometry>
        </mxCell>
        <mxCell id="aKff7ISgaeGH02d5SOeT-121" value="" style="endArrow=none;html=1;rounded=0;" edge="1" parent="1">
          <mxGeometry width="50" height="50" relative="1" as="geometry">
            <mxPoint x="-150" y="549.02" as="sourcePoint" />
            <mxPoint x="-140" y="545.19" as="targetPoint" />
          </mxGeometry>
        </mxCell>
        <mxCell id="aKff7ISgaeGH02d5SOeT-122" value="" style="endArrow=none;html=1;rounded=0;" edge="1" parent="1">
          <mxGeometry width="50" height="50" relative="1" as="geometry">
            <mxPoint x="-140" y="540.8" as="sourcePoint" />
            <mxPoint x="-140" y="549.24" as="targetPoint" />
          </mxGeometry>
        </mxCell>
        <mxCell id="aKff7ISgaeGH02d5SOeT-123" value="" style="endArrow=none;html=1;rounded=0;" edge="1" parent="1">
          <mxGeometry relative="1" as="geometry">
            <mxPoint x="-140" y="514.54" as="sourcePoint" />
            <mxPoint x="-50" y="515" as="targetPoint" />
          </mxGeometry>
        </mxCell>
        <mxCell id="aKff7ISgaeGH02d5SOeT-124" value="" style="endArrow=none;html=1;rounded=0;" edge="1" parent="1">
          <mxGeometry width="50" height="50" relative="1" as="geometry">
            <mxPoint x="-150" y="514.41" as="sourcePoint" />
            <mxPoint x="-140" y="514.41" as="targetPoint" />
          </mxGeometry>
        </mxCell>
        <mxCell id="aKff7ISgaeGH02d5SOeT-125" value="" style="endArrow=none;html=1;rounded=0;" edge="1" parent="1">
          <mxGeometry width="50" height="50" relative="1" as="geometry">
            <mxPoint x="-150" y="510.53999999999996" as="sourcePoint" />
            <mxPoint x="-140" y="514.54" as="targetPoint" />
          </mxGeometry>
        </mxCell>
        <mxCell id="aKff7ISgaeGH02d5SOeT-126" value="" style="endArrow=none;html=1;rounded=0;" edge="1" parent="1">
          <mxGeometry width="50" height="50" relative="1" as="geometry">
            <mxPoint x="-150" y="518.54" as="sourcePoint" />
            <mxPoint x="-140" y="514.71" as="targetPoint" />
          </mxGeometry>
        </mxCell>
        <mxCell id="aKff7ISgaeGH02d5SOeT-127" value="" style="endArrow=none;html=1;rounded=0;" edge="1" parent="1">
          <mxGeometry width="50" height="50" relative="1" as="geometry">
            <mxPoint x="-140" y="510.31999999999994" as="sourcePoint" />
            <mxPoint x="-140" y="518.76" as="targetPoint" />
          </mxGeometry>
        </mxCell>
        <mxCell id="aKff7ISgaeGH02d5SOeT-128" value="" style="endArrow=none;html=1;rounded=0;" edge="1" parent="1">
          <mxGeometry relative="1" as="geometry">
            <mxPoint x="-140" y="328.88" as="sourcePoint" />
            <mxPoint x="-50" y="330" as="targetPoint" />
          </mxGeometry>
        </mxCell>
        <mxCell id="aKff7ISgaeGH02d5SOeT-129" value="" style="endArrow=none;html=1;rounded=0;" edge="1" parent="1">
          <mxGeometry width="50" height="50" relative="1" as="geometry">
            <mxPoint x="-150" y="328.75" as="sourcePoint" />
            <mxPoint x="-140" y="328.75" as="targetPoint" />
          </mxGeometry>
        </mxCell>
        <mxCell id="aKff7ISgaeGH02d5SOeT-130" value="" style="endArrow=none;html=1;rounded=0;" edge="1" parent="1">
          <mxGeometry width="50" height="50" relative="1" as="geometry">
            <mxPoint x="-150" y="324.88" as="sourcePoint" />
            <mxPoint x="-140" y="328.88" as="targetPoint" />
          </mxGeometry>
        </mxCell>
        <mxCell id="aKff7ISgaeGH02d5SOeT-131" value="" style="endArrow=none;html=1;rounded=0;" edge="1" parent="1">
          <mxGeometry width="50" height="50" relative="1" as="geometry">
            <mxPoint x="-150" y="332.88" as="sourcePoint" />
            <mxPoint x="-140" y="329.05000000000007" as="targetPoint" />
          </mxGeometry>
        </mxCell>
        <mxCell id="aKff7ISgaeGH02d5SOeT-132" value="" style="endArrow=none;html=1;rounded=0;" edge="1" parent="1">
          <mxGeometry width="50" height="50" relative="1" as="geometry">
            <mxPoint x="-140" y="324.65999999999997" as="sourcePoint" />
            <mxPoint x="-140" y="333.1" as="targetPoint" />
          </mxGeometry>
        </mxCell>
        <mxCell id="aKff7ISgaeGH02d5SOeT-133" value="" style="endArrow=none;html=1;rounded=0;" edge="1" parent="1">
          <mxGeometry relative="1" as="geometry">
            <mxPoint x="-140" y="358.27" as="sourcePoint" />
            <mxPoint x="-80" y="358" as="targetPoint" />
          </mxGeometry>
        </mxCell>
        <mxCell id="aKff7ISgaeGH02d5SOeT-134" value="" style="endArrow=none;html=1;rounded=0;" edge="1" parent="1">
          <mxGeometry width="50" height="50" relative="1" as="geometry">
            <mxPoint x="-150" y="358.14" as="sourcePoint" />
            <mxPoint x="-140" y="358.14" as="targetPoint" />
          </mxGeometry>
        </mxCell>
        <mxCell id="aKff7ISgaeGH02d5SOeT-135" value="" style="endArrow=none;html=1;rounded=0;" edge="1" parent="1">
          <mxGeometry width="50" height="50" relative="1" as="geometry">
            <mxPoint x="-150" y="354.27" as="sourcePoint" />
            <mxPoint x="-140" y="358.27" as="targetPoint" />
          </mxGeometry>
        </mxCell>
        <mxCell id="aKff7ISgaeGH02d5SOeT-136" value="" style="endArrow=none;html=1;rounded=0;" edge="1" parent="1">
          <mxGeometry width="50" height="50" relative="1" as="geometry">
            <mxPoint x="-150" y="362.27" as="sourcePoint" />
            <mxPoint x="-140" y="358.44000000000005" as="targetPoint" />
          </mxGeometry>
        </mxCell>
        <mxCell id="aKff7ISgaeGH02d5SOeT-137" value="" style="endArrow=none;html=1;rounded=0;" edge="1" parent="1">
          <mxGeometry width="50" height="50" relative="1" as="geometry">
            <mxPoint x="-140" y="354.04999999999995" as="sourcePoint" />
            <mxPoint x="-140" y="362.49" as="targetPoint" />
          </mxGeometry>
        </mxCell>
        <mxCell id="aKff7ISgaeGH02d5SOeT-138" value="" style="endArrow=none;html=1;rounded=0;" edge="1" parent="1">
          <mxGeometry width="50" height="50" relative="1" as="geometry">
            <mxPoint x="-50" y="515" as="sourcePoint" />
            <mxPoint x="-50" y="330" as="targetPoint" />
          </mxGeometry>
        </mxCell>
        <mxCell id="aKff7ISgaeGH02d5SOeT-139" value="" style="endArrow=none;html=1;rounded=0;" edge="1" parent="1">
          <mxGeometry width="50" height="50" relative="1" as="geometry">
            <mxPoint x="-50" y="465" as="sourcePoint" />
            <mxPoint x="-16" y="465" as="targetPoint" />
          </mxGeometry>
        </mxCell>
        <mxCell id="aKff7ISgaeGH02d5SOeT-140" value="" style="endArrow=none;html=1;rounded=0;" edge="1" parent="1">
          <mxGeometry width="50" height="50" relative="1" as="geometry">
            <mxPoint x="-50" y="735" as="sourcePoint" />
            <mxPoint x="-50" y="545" as="targetPoint" />
          </mxGeometry>
        </mxCell>
        <mxCell id="aKff7ISgaeGH02d5SOeT-141" value="" style="endArrow=none;html=1;rounded=0;" edge="1" parent="1">
          <mxGeometry width="50" height="50" relative="1" as="geometry">
            <mxPoint x="-80" y="420" as="sourcePoint" />
            <mxPoint x="-80" y="358.21" as="targetPoint" />
          </mxGeometry>
        </mxCell>
        <mxCell id="aKff7ISgaeGH02d5SOeT-143" value="" style="endArrow=none;html=1;rounded=0;" edge="1" parent="1">
          <mxGeometry relative="1" as="geometry">
            <mxPoint x="-500" y="420" as="sourcePoint" />
            <mxPoint x="-80" y="420" as="targetPoint" />
          </mxGeometry>
        </mxCell>
        <mxCell id="aKff7ISgaeGH02d5SOeT-144" value="" style="endArrow=none;html=1;rounded=0;" edge="1" parent="1">
          <mxGeometry width="50" height="50" relative="1" as="geometry">
            <mxPoint x="-500" y="420" as="sourcePoint" />
            <mxPoint x="-500" y="90" as="targetPoint" />
          </mxGeometry>
        </mxCell>
        <mxCell id="aKff7ISgaeGH02d5SOeT-145" value="" style="endArrow=none;html=1;rounded=0;" edge="1" parent="1">
          <mxGeometry relative="1" as="geometry">
            <mxPoint x="-500" y="90" as="sourcePoint" />
            <mxPoint x="321.14285714285717" y="90" as="targetPoint" />
          </mxGeometry>
        </mxCell>
        <mxCell id="aKff7ISgaeGH02d5SOeT-146" value="" style="endArrow=none;html=1;rounded=0;" edge="1" parent="1">
          <mxGeometry relative="1" as="geometry">
            <mxPoint x="321" y="170" as="sourcePoint" />
            <mxPoint x="321" y="90" as="targetPoint" />
          </mxGeometry>
        </mxCell>
      </root>
    </mxGraphModel>
  </diagram>
</mxfile>
